<mxfile host="app.diagrams.net" modified="2024-03-19T21:16:13.698Z" agent="Mozilla/5.0 (Windows NT 10.0; Win64; x64; rv:123.0) Gecko/20100101 Firefox/123.0" etag="dqFAW3vcChuB8AVW72Zy" version="23.0.2" type="device" pages="3">
  <diagram id="qyKtk198A5g8vwcFMWGJ" name="Conceptual  model">
    <mxGraphModel dx="1434" dy="894" grid="1" gridSize="10" guides="1" tooltips="1" connect="1" arrows="1" fold="1" page="1" pageScale="1" pageWidth="827" pageHeight="1169" math="0" shadow="0">
      <root>
        <mxCell id="0" />
        <mxCell id="1" parent="0" />
        <mxCell id="fApX5C197WPYJs1WFiMs-2" style="edgeStyle=orthogonalEdgeStyle;rounded=0;orthogonalLoop=1;jettySize=auto;html=1;entryX=0;entryY=0.5;entryDx=0;entryDy=0;" parent="1" source="fApX5C197WPYJs1WFiMs-11" target="fApX5C197WPYJs1WFiMs-43" edge="1">
          <mxGeometry relative="1" as="geometry" />
        </mxCell>
        <mxCell id="fApX5C197WPYJs1WFiMs-3" style="edgeStyle=orthogonalEdgeStyle;rounded=0;orthogonalLoop=1;jettySize=auto;html=1;entryX=1;entryY=0.5;entryDx=0;entryDy=0;" parent="1" source="fApX5C197WPYJs1WFiMs-11" target="fApX5C197WPYJs1WFiMs-42" edge="1">
          <mxGeometry relative="1" as="geometry" />
        </mxCell>
        <mxCell id="fApX5C197WPYJs1WFiMs-4" style="edgeStyle=orthogonalEdgeStyle;rounded=0;orthogonalLoop=1;jettySize=auto;html=1;entryX=1;entryY=0.5;entryDx=0;entryDy=0;" parent="1" source="fApX5C197WPYJs1WFiMs-11" target="fApX5C197WPYJs1WFiMs-12" edge="1">
          <mxGeometry relative="1" as="geometry" />
        </mxCell>
        <mxCell id="fApX5C197WPYJs1WFiMs-5" style="edgeStyle=orthogonalEdgeStyle;rounded=0;orthogonalLoop=1;jettySize=auto;html=1;entryX=1;entryY=0.5;entryDx=0;entryDy=0;" parent="1" source="fApX5C197WPYJs1WFiMs-11" target="fApX5C197WPYJs1WFiMs-45" edge="1">
          <mxGeometry relative="1" as="geometry" />
        </mxCell>
        <mxCell id="fApX5C197WPYJs1WFiMs-6" style="edgeStyle=orthogonalEdgeStyle;rounded=0;orthogonalLoop=1;jettySize=auto;html=1;entryX=0;entryY=0.5;entryDx=0;entryDy=0;" parent="1" source="fApX5C197WPYJs1WFiMs-11" target="fApX5C197WPYJs1WFiMs-13" edge="1">
          <mxGeometry relative="1" as="geometry" />
        </mxCell>
        <mxCell id="fApX5C197WPYJs1WFiMs-7" style="edgeStyle=orthogonalEdgeStyle;rounded=0;orthogonalLoop=1;jettySize=auto;html=1;entryX=0;entryY=0.5;entryDx=0;entryDy=0;" parent="1" source="fApX5C197WPYJs1WFiMs-11" target="fApX5C197WPYJs1WFiMs-15" edge="1">
          <mxGeometry relative="1" as="geometry" />
        </mxCell>
        <mxCell id="fApX5C197WPYJs1WFiMs-8" style="edgeStyle=orthogonalEdgeStyle;rounded=0;orthogonalLoop=1;jettySize=auto;html=1;entryX=0;entryY=0.4;entryDx=0;entryDy=0;entryPerimeter=0;" parent="1" source="fApX5C197WPYJs1WFiMs-11" target="fApX5C197WPYJs1WFiMs-44" edge="1">
          <mxGeometry relative="1" as="geometry" />
        </mxCell>
        <mxCell id="fApX5C197WPYJs1WFiMs-10" style="edgeStyle=orthogonalEdgeStyle;rounded=0;orthogonalLoop=1;jettySize=auto;html=1;entryX=0;entryY=0.25;entryDx=0;entryDy=0;" parent="1" source="fApX5C197WPYJs1WFiMs-11" target="fApX5C197WPYJs1WFiMs-33" edge="1">
          <mxGeometry relative="1" as="geometry" />
        </mxCell>
        <mxCell id="2_Y_Nw8HnQZ8uV6R0BFU-10" style="edgeStyle=orthogonalEdgeStyle;rounded=0;orthogonalLoop=1;jettySize=auto;html=1;exitX=0.5;exitY=0;exitDx=0;exitDy=0;entryX=1;entryY=0.5;entryDx=0;entryDy=0;" parent="1" source="fApX5C197WPYJs1WFiMs-11" target="fApX5C197WPYJs1WFiMs-41" edge="1">
          <mxGeometry relative="1" as="geometry" />
        </mxCell>
        <mxCell id="fApX5C197WPYJs1WFiMs-11" value="Product" style="rounded=0;whiteSpace=wrap;html=1;fontStyle=1;fillColor=#f8cecc;strokeColor=none;" parent="1" vertex="1">
          <mxGeometry x="85" y="763" width="120" height="50" as="geometry" />
        </mxCell>
        <mxCell id="fApX5C197WPYJs1WFiMs-12" value="Model" style="ellipse;whiteSpace=wrap;html=1;fontSize=11;" parent="1" vertex="1">
          <mxGeometry x="39" y="648" width="80" height="40" as="geometry" />
        </mxCell>
        <mxCell id="fApX5C197WPYJs1WFiMs-13" value="Brand" style="ellipse;whiteSpace=wrap;html=1;fontSize=11;" parent="1" vertex="1">
          <mxGeometry x="174" y="594" width="80" height="40" as="geometry" />
        </mxCell>
        <mxCell id="fApX5C197WPYJs1WFiMs-14" style="edgeStyle=orthogonalEdgeStyle;rounded=0;orthogonalLoop=1;jettySize=auto;html=1;exitX=0.5;exitY=1;exitDx=0;exitDy=0;" parent="1" edge="1">
          <mxGeometry relative="1" as="geometry">
            <mxPoint x="203" y="762" as="sourcePoint" />
            <mxPoint x="203" y="762" as="targetPoint" />
          </mxGeometry>
        </mxCell>
        <mxCell id="fApX5C197WPYJs1WFiMs-15" value="Color" style="ellipse;whiteSpace=wrap;html=1;" parent="1" vertex="1">
          <mxGeometry x="178" y="648" width="76" height="40" as="geometry" />
        </mxCell>
        <mxCell id="2_Y_Nw8HnQZ8uV6R0BFU-11" style="edgeStyle=orthogonalEdgeStyle;rounded=0;orthogonalLoop=1;jettySize=auto;html=1;exitX=0.5;exitY=0;exitDx=0;exitDy=0;entryX=1;entryY=0.5;entryDx=0;entryDy=0;" parent="1" source="fApX5C197WPYJs1WFiMs-25" target="fApX5C197WPYJs1WFiMs-47" edge="1">
          <mxGeometry relative="1" as="geometry" />
        </mxCell>
        <mxCell id="2_Y_Nw8HnQZ8uV6R0BFU-12" style="edgeStyle=orthogonalEdgeStyle;rounded=0;orthogonalLoop=1;jettySize=auto;html=1;exitX=0.5;exitY=0;exitDx=0;exitDy=0;entryX=0;entryY=0.5;entryDx=0;entryDy=0;" parent="1" source="fApX5C197WPYJs1WFiMs-25" target="fApX5C197WPYJs1WFiMs-48" edge="1">
          <mxGeometry relative="1" as="geometry" />
        </mxCell>
        <mxCell id="2_Y_Nw8HnQZ8uV6R0BFU-13" style="edgeStyle=orthogonalEdgeStyle;rounded=0;orthogonalLoop=1;jettySize=auto;html=1;exitX=0.5;exitY=0;exitDx=0;exitDy=0;entryX=1;entryY=0.5;entryDx=0;entryDy=0;" parent="1" source="fApX5C197WPYJs1WFiMs-25" target="fApX5C197WPYJs1WFiMs-49" edge="1">
          <mxGeometry relative="1" as="geometry" />
        </mxCell>
        <mxCell id="2_Y_Nw8HnQZ8uV6R0BFU-14" style="edgeStyle=orthogonalEdgeStyle;rounded=0;orthogonalLoop=1;jettySize=auto;html=1;exitX=0.5;exitY=0;exitDx=0;exitDy=0;entryX=0;entryY=0.5;entryDx=0;entryDy=0;" parent="1" source="fApX5C197WPYJs1WFiMs-25" target="fApX5C197WPYJs1WFiMs-50" edge="1">
          <mxGeometry relative="1" as="geometry" />
        </mxCell>
        <mxCell id="2_Y_Nw8HnQZ8uV6R0BFU-15" style="edgeStyle=orthogonalEdgeStyle;rounded=0;orthogonalLoop=1;jettySize=auto;html=1;exitX=0.5;exitY=0;exitDx=0;exitDy=0;entryX=1;entryY=0.5;entryDx=0;entryDy=0;" parent="1" source="fApX5C197WPYJs1WFiMs-25" target="fApX5C197WPYJs1WFiMs-51" edge="1">
          <mxGeometry relative="1" as="geometry" />
        </mxCell>
        <mxCell id="2_Y_Nw8HnQZ8uV6R0BFU-16" style="edgeStyle=orthogonalEdgeStyle;rounded=0;orthogonalLoop=1;jettySize=auto;html=1;exitX=0.5;exitY=0;exitDx=0;exitDy=0;entryX=0;entryY=0.5;entryDx=0;entryDy=0;" parent="1" source="fApX5C197WPYJs1WFiMs-25" target="fApX5C197WPYJs1WFiMs-52" edge="1">
          <mxGeometry relative="1" as="geometry" />
        </mxCell>
        <mxCell id="2_Y_Nw8HnQZ8uV6R0BFU-17" style="edgeStyle=orthogonalEdgeStyle;rounded=0;orthogonalLoop=1;jettySize=auto;html=1;exitX=0.5;exitY=0;exitDx=0;exitDy=0;entryX=1;entryY=0.5;entryDx=0;entryDy=0;" parent="1" source="fApX5C197WPYJs1WFiMs-25" target="fApX5C197WPYJs1WFiMs-54" edge="1">
          <mxGeometry relative="1" as="geometry" />
        </mxCell>
        <mxCell id="2_Y_Nw8HnQZ8uV6R0BFU-18" style="edgeStyle=orthogonalEdgeStyle;rounded=0;orthogonalLoop=1;jettySize=auto;html=1;exitX=0.5;exitY=0;exitDx=0;exitDy=0;entryX=0;entryY=0.5;entryDx=0;entryDy=0;" parent="1" source="fApX5C197WPYJs1WFiMs-25" target="2_Y_Nw8HnQZ8uV6R0BFU-1" edge="1">
          <mxGeometry relative="1" as="geometry" />
        </mxCell>
        <mxCell id="2_Y_Nw8HnQZ8uV6R0BFU-31" style="edgeStyle=orthogonalEdgeStyle;rounded=0;orthogonalLoop=1;jettySize=auto;html=1;exitX=0.5;exitY=1;exitDx=0;exitDy=0;entryX=0.5;entryY=0;entryDx=0;entryDy=0;" parent="1" source="fApX5C197WPYJs1WFiMs-25" target="fApX5C197WPYJs1WFiMs-33" edge="1">
          <mxGeometry relative="1" as="geometry" />
        </mxCell>
        <mxCell id="fApX5C197WPYJs1WFiMs-25" value="&lt;font style=&quot;font-size: 12px;&quot;&gt;Client&lt;/font&gt;" style="rounded=0;whiteSpace=wrap;html=1;fillColor=#f8cecc;strokeColor=none;fontStyle=1" parent="1" vertex="1">
          <mxGeometry x="374" y="753" width="120" height="50.5" as="geometry" />
        </mxCell>
        <mxCell id="fApX5C197WPYJs1WFiMs-26" style="edgeStyle=orthogonalEdgeStyle;rounded=0;orthogonalLoop=1;jettySize=auto;html=1;entryX=1;entryY=0.5;entryDx=0;entryDy=0;" parent="1" source="fApX5C197WPYJs1WFiMs-33" target="fApX5C197WPYJs1WFiMs-61" edge="1">
          <mxGeometry relative="1" as="geometry" />
        </mxCell>
        <mxCell id="fApX5C197WPYJs1WFiMs-27" style="edgeStyle=orthogonalEdgeStyle;rounded=0;orthogonalLoop=1;jettySize=auto;html=1;entryX=1;entryY=0.5;entryDx=0;entryDy=0;" parent="1" source="fApX5C197WPYJs1WFiMs-33" target="fApX5C197WPYJs1WFiMs-67" edge="1">
          <mxGeometry relative="1" as="geometry" />
        </mxCell>
        <mxCell id="fApX5C197WPYJs1WFiMs-28" style="edgeStyle=orthogonalEdgeStyle;rounded=0;orthogonalLoop=1;jettySize=auto;html=1;entryX=1;entryY=0.5;entryDx=0;entryDy=0;" parent="1" source="fApX5C197WPYJs1WFiMs-33" target="fApX5C197WPYJs1WFiMs-65" edge="1">
          <mxGeometry relative="1" as="geometry" />
        </mxCell>
        <mxCell id="fApX5C197WPYJs1WFiMs-29" style="edgeStyle=orthogonalEdgeStyle;rounded=0;orthogonalLoop=1;jettySize=auto;html=1;entryX=0;entryY=0.5;entryDx=0;entryDy=0;" parent="1" source="fApX5C197WPYJs1WFiMs-33" target="fApX5C197WPYJs1WFiMs-62" edge="1">
          <mxGeometry relative="1" as="geometry" />
        </mxCell>
        <mxCell id="fApX5C197WPYJs1WFiMs-30" style="edgeStyle=orthogonalEdgeStyle;rounded=0;orthogonalLoop=1;jettySize=auto;html=1;entryX=0;entryY=0.5;entryDx=0;entryDy=0;" parent="1" source="fApX5C197WPYJs1WFiMs-33" target="fApX5C197WPYJs1WFiMs-63" edge="1">
          <mxGeometry relative="1" as="geometry" />
        </mxCell>
        <mxCell id="fApX5C197WPYJs1WFiMs-31" style="edgeStyle=orthogonalEdgeStyle;rounded=0;orthogonalLoop=1;jettySize=auto;html=1;entryX=0;entryY=0.5;entryDx=0;entryDy=0;" parent="1" source="fApX5C197WPYJs1WFiMs-33" target="fApX5C197WPYJs1WFiMs-64" edge="1">
          <mxGeometry relative="1" as="geometry" />
        </mxCell>
        <mxCell id="fApX5C197WPYJs1WFiMs-32" style="edgeStyle=orthogonalEdgeStyle;rounded=0;orthogonalLoop=1;jettySize=auto;html=1;entryX=0;entryY=0.5;entryDx=0;entryDy=0;" parent="1" source="fApX5C197WPYJs1WFiMs-33" target="fApX5C197WPYJs1WFiMs-68" edge="1">
          <mxGeometry relative="1" as="geometry" />
        </mxCell>
        <mxCell id="2_Y_Nw8HnQZ8uV6R0BFU-6" style="edgeStyle=orthogonalEdgeStyle;rounded=0;orthogonalLoop=1;jettySize=auto;html=1;exitX=0.5;exitY=1;exitDx=0;exitDy=0;entryX=1;entryY=0.5;entryDx=0;entryDy=0;" parent="1" source="fApX5C197WPYJs1WFiMs-33" target="2_Y_Nw8HnQZ8uV6R0BFU-2" edge="1">
          <mxGeometry relative="1" as="geometry" />
        </mxCell>
        <mxCell id="2_Y_Nw8HnQZ8uV6R0BFU-7" style="edgeStyle=orthogonalEdgeStyle;rounded=0;orthogonalLoop=1;jettySize=auto;html=1;exitX=0.5;exitY=1;exitDx=0;exitDy=0;entryX=1;entryY=0.5;entryDx=0;entryDy=0;" parent="1" source="fApX5C197WPYJs1WFiMs-33" target="2_Y_Nw8HnQZ8uV6R0BFU-3" edge="1">
          <mxGeometry relative="1" as="geometry" />
        </mxCell>
        <mxCell id="2_Y_Nw8HnQZ8uV6R0BFU-8" style="edgeStyle=orthogonalEdgeStyle;rounded=0;orthogonalLoop=1;jettySize=auto;html=1;exitX=0.5;exitY=1;exitDx=0;exitDy=0;entryX=0;entryY=0.5;entryDx=0;entryDy=0;" parent="1" source="fApX5C197WPYJs1WFiMs-33" target="2_Y_Nw8HnQZ8uV6R0BFU-4" edge="1">
          <mxGeometry relative="1" as="geometry" />
        </mxCell>
        <mxCell id="2_Y_Nw8HnQZ8uV6R0BFU-9" style="edgeStyle=orthogonalEdgeStyle;rounded=0;orthogonalLoop=1;jettySize=auto;html=1;exitX=0.5;exitY=1;exitDx=0;exitDy=0;entryX=0;entryY=0.5;entryDx=0;entryDy=0;" parent="1" source="fApX5C197WPYJs1WFiMs-33" target="2_Y_Nw8HnQZ8uV6R0BFU-5" edge="1">
          <mxGeometry relative="1" as="geometry" />
        </mxCell>
        <mxCell id="fApX5C197WPYJs1WFiMs-33" value="Order" style="rounded=0;whiteSpace=wrap;html=1;fillColor=#f8cecc;strokeColor=none;fontStyle=1" parent="1" vertex="1">
          <mxGeometry x="374" y="869" width="120" height="50.5" as="geometry" />
        </mxCell>
        <mxCell id="fApX5C197WPYJs1WFiMs-34" style="edgeStyle=orthogonalEdgeStyle;rounded=0;orthogonalLoop=1;jettySize=auto;html=1;entryX=0;entryY=0.5;entryDx=0;entryDy=0;exitX=0.5;exitY=1;exitDx=0;exitDy=0;" parent="1" source="fApX5C197WPYJs1WFiMs-40" target="fApX5C197WPYJs1WFiMs-56" edge="1">
          <mxGeometry relative="1" as="geometry" />
        </mxCell>
        <mxCell id="fApX5C197WPYJs1WFiMs-35" style="edgeStyle=orthogonalEdgeStyle;rounded=0;orthogonalLoop=1;jettySize=auto;html=1;entryX=1;entryY=0.5;entryDx=0;entryDy=0;exitX=0.5;exitY=1;exitDx=0;exitDy=0;" parent="1" source="fApX5C197WPYJs1WFiMs-40" target="fApX5C197WPYJs1WFiMs-57" edge="1">
          <mxGeometry relative="1" as="geometry" />
        </mxCell>
        <mxCell id="fApX5C197WPYJs1WFiMs-36" style="edgeStyle=orthogonalEdgeStyle;rounded=0;orthogonalLoop=1;jettySize=auto;html=1;entryX=1;entryY=0.5;entryDx=0;entryDy=0;exitX=0.5;exitY=1;exitDx=0;exitDy=0;" parent="1" source="fApX5C197WPYJs1WFiMs-40" target="fApX5C197WPYJs1WFiMs-58" edge="1">
          <mxGeometry relative="1" as="geometry" />
        </mxCell>
        <mxCell id="fApX5C197WPYJs1WFiMs-37" style="edgeStyle=orthogonalEdgeStyle;rounded=0;orthogonalLoop=1;jettySize=auto;html=1;entryX=0;entryY=0.5;entryDx=0;entryDy=0;exitX=0.5;exitY=1;exitDx=0;exitDy=0;" parent="1" source="fApX5C197WPYJs1WFiMs-40" target="fApX5C197WPYJs1WFiMs-59" edge="1">
          <mxGeometry relative="1" as="geometry" />
        </mxCell>
        <mxCell id="fApX5C197WPYJs1WFiMs-38" style="edgeStyle=orthogonalEdgeStyle;rounded=0;orthogonalLoop=1;jettySize=auto;html=1;entryX=1;entryY=0.5;entryDx=0;entryDy=0;exitX=0.5;exitY=1;exitDx=0;exitDy=0;" parent="1" source="fApX5C197WPYJs1WFiMs-40" target="fApX5C197WPYJs1WFiMs-60" edge="1">
          <mxGeometry relative="1" as="geometry" />
        </mxCell>
        <mxCell id="fApX5C197WPYJs1WFiMs-39" style="edgeStyle=orthogonalEdgeStyle;rounded=0;orthogonalLoop=1;jettySize=auto;html=1;entryX=0;entryY=0.75;entryDx=0;entryDy=0;" parent="1" source="fApX5C197WPYJs1WFiMs-40" target="fApX5C197WPYJs1WFiMs-33" edge="1">
          <mxGeometry relative="1" as="geometry" />
        </mxCell>
        <mxCell id="fApX5C197WPYJs1WFiMs-40" value="Vendor" style="rounded=0;whiteSpace=wrap;html=1;fillColor=#f8cecc;strokeColor=none;fontStyle=1" parent="1" vertex="1">
          <mxGeometry x="86" y="979" width="120" height="50.5" as="geometry" />
        </mxCell>
        <mxCell id="fApX5C197WPYJs1WFiMs-41" value="ProductID" style="ellipse;whiteSpace=wrap;html=1;fontSize=11;" parent="1" vertex="1">
          <mxGeometry x="39" y="538" width="80" height="40" as="geometry" />
        </mxCell>
        <mxCell id="fApX5C197WPYJs1WFiMs-42" value="Group" style="ellipse;whiteSpace=wrap;html=1;fontSize=11;" parent="1" vertex="1">
          <mxGeometry x="39" y="594" width="80" height="40" as="geometry" />
        </mxCell>
        <mxCell id="fApX5C197WPYJs1WFiMs-43" value="Name" style="ellipse;whiteSpace=wrap;html=1;fontSize=11;" parent="1" vertex="1">
          <mxGeometry x="174" y="540" width="80" height="40" as="geometry" />
        </mxCell>
        <mxCell id="fApX5C197WPYJs1WFiMs-44" value="VendorPrice" style="ellipse;whiteSpace=wrap;html=1;" parent="1" vertex="1">
          <mxGeometry x="174" y="701" width="76" height="40" as="geometry" />
        </mxCell>
        <mxCell id="fApX5C197WPYJs1WFiMs-45" value="Price" style="ellipse;whiteSpace=wrap;html=1;" parent="1" vertex="1">
          <mxGeometry x="41" y="697" width="76" height="40" as="geometry" />
        </mxCell>
        <mxCell id="fApX5C197WPYJs1WFiMs-47" value="ClientID" style="ellipse;whiteSpace=wrap;html=1;fontSize=11;" parent="1" vertex="1">
          <mxGeometry x="331" y="506.5" width="80" height="40" as="geometry" />
        </mxCell>
        <mxCell id="fApX5C197WPYJs1WFiMs-48" value="FirstName" style="ellipse;whiteSpace=wrap;html=1;fontSize=11;" parent="1" vertex="1">
          <mxGeometry x="464" y="506.5" width="80" height="40" as="geometry" />
        </mxCell>
        <mxCell id="fApX5C197WPYJs1WFiMs-49" value="LastName" style="ellipse;whiteSpace=wrap;html=1;fontSize=11;" parent="1" vertex="1">
          <mxGeometry x="329" y="560.5" width="80" height="40" as="geometry" />
        </mxCell>
        <mxCell id="fApX5C197WPYJs1WFiMs-50" value="Gender" style="ellipse;whiteSpace=wrap;html=1;fontSize=11;" parent="1" vertex="1">
          <mxGeometry x="464" y="560.5" width="80" height="40" as="geometry" />
        </mxCell>
        <mxCell id="fApX5C197WPYJs1WFiMs-51" value="Birthday" style="ellipse;whiteSpace=wrap;html=1;fontSize=11;" parent="1" vertex="1">
          <mxGeometry x="329" y="618.5" width="80" height="40" as="geometry" />
        </mxCell>
        <mxCell id="fApX5C197WPYJs1WFiMs-52" value="PassportID" style="ellipse;whiteSpace=wrap;html=1;fontSize=11;" parent="1" vertex="1">
          <mxGeometry x="464" y="618.5" width="80" height="40" as="geometry" />
        </mxCell>
        <mxCell id="fApX5C197WPYJs1WFiMs-53" value="" style="group" parent="1" vertex="1" connectable="0">
          <mxGeometry x="333" y="674.5" width="72" height="46" as="geometry" />
        </mxCell>
        <mxCell id="fApX5C197WPYJs1WFiMs-54" value="TelNumber" style="ellipse;whiteSpace=wrap;html=1;" parent="fApX5C197WPYJs1WFiMs-53" vertex="1">
          <mxGeometry width="72" height="46" as="geometry" />
        </mxCell>
        <mxCell id="fApX5C197WPYJs1WFiMs-56" value="Name" style="ellipse;whiteSpace=wrap;html=1;fontSize=11;" parent="1" vertex="1">
          <mxGeometry x="170" y="1047" width="80" height="40" as="geometry" />
        </mxCell>
        <mxCell id="fApX5C197WPYJs1WFiMs-57" value="VendorID" style="ellipse;whiteSpace=wrap;html=1;fontSize=11;" parent="1" vertex="1">
          <mxGeometry x="42" y="1047" width="80" height="40" as="geometry" />
        </mxCell>
        <mxCell id="fApX5C197WPYJs1WFiMs-58" value="ActiveFlag" style="ellipse;whiteSpace=wrap;html=1;fontSize=11;" parent="1" vertex="1">
          <mxGeometry x="41" y="1104" width="80" height="40" as="geometry" />
        </mxCell>
        <mxCell id="fApX5C197WPYJs1WFiMs-59" value="WebURL" style="ellipse;whiteSpace=wrap;html=1;fontSize=11;" parent="1" vertex="1">
          <mxGeometry x="170" y="1104" width="80" height="40" as="geometry" />
        </mxCell>
        <mxCell id="fApX5C197WPYJs1WFiMs-60" value="ModifiedeDate" style="ellipse;whiteSpace=wrap;html=1;fontSize=11;" parent="1" vertex="1">
          <mxGeometry x="41" y="1160" width="80" height="40" as="geometry" />
        </mxCell>
        <mxCell id="fApX5C197WPYJs1WFiMs-61" value="OrderID" style="ellipse;whiteSpace=wrap;html=1;fontSize=11;" parent="1" vertex="1">
          <mxGeometry x="322" y="936" width="80" height="40" as="geometry" />
        </mxCell>
        <mxCell id="fApX5C197WPYJs1WFiMs-62" value="ClientID" style="ellipse;whiteSpace=wrap;html=1;fontSize=11;" parent="1" vertex="1">
          <mxGeometry x="466" y="936" width="80" height="40" as="geometry" />
        </mxCell>
        <mxCell id="fApX5C197WPYJs1WFiMs-63" value="DeliveryID" style="ellipse;whiteSpace=wrap;html=1;fontSize=11;" parent="1" vertex="1">
          <mxGeometry x="466" y="993" width="80" height="40" as="geometry" />
        </mxCell>
        <mxCell id="fApX5C197WPYJs1WFiMs-64" value="StatusID" style="ellipse;whiteSpace=wrap;html=1;fontSize=11;" parent="1" vertex="1">
          <mxGeometry x="466" y="1054" width="80" height="40" as="geometry" />
        </mxCell>
        <mxCell id="fApX5C197WPYJs1WFiMs-65" value="VendorID" style="ellipse;whiteSpace=wrap;html=1;fontSize=11;" parent="1" vertex="1">
          <mxGeometry x="318" y="1054" width="80" height="40" as="geometry" />
        </mxCell>
        <mxCell id="fApX5C197WPYJs1WFiMs-66" value="" style="group" parent="1" vertex="1" connectable="0">
          <mxGeometry x="322" y="990" width="72" height="46" as="geometry" />
        </mxCell>
        <mxCell id="fApX5C197WPYJs1WFiMs-67" value="ProductID" style="ellipse;whiteSpace=wrap;html=1;" parent="fApX5C197WPYJs1WFiMs-66" vertex="1">
          <mxGeometry width="72" height="46" as="geometry" />
        </mxCell>
        <mxCell id="fApX5C197WPYJs1WFiMs-68" value="Quantity" style="ellipse;whiteSpace=wrap;html=1;fontSize=11;" parent="1" vertex="1">
          <mxGeometry x="466" y="1110" width="80" height="40" as="geometry" />
        </mxCell>
        <mxCell id="fApX5C197WPYJs1WFiMs-70" style="edgeStyle=orthogonalEdgeStyle;rounded=0;orthogonalLoop=1;jettySize=auto;html=1;entryX=1;entryY=0.5;entryDx=0;entryDy=0;" parent="1" source="fApX5C197WPYJs1WFiMs-74" target="fApX5C197WPYJs1WFiMs-79" edge="1">
          <mxGeometry relative="1" as="geometry" />
        </mxCell>
        <mxCell id="fApX5C197WPYJs1WFiMs-72" style="edgeStyle=orthogonalEdgeStyle;rounded=0;orthogonalLoop=1;jettySize=auto;html=1;entryX=0;entryY=0.4;entryDx=0;entryDy=0;entryPerimeter=0;" parent="1" source="fApX5C197WPYJs1WFiMs-74" target="fApX5C197WPYJs1WFiMs-78" edge="1">
          <mxGeometry relative="1" as="geometry" />
        </mxCell>
        <mxCell id="2_Y_Nw8HnQZ8uV6R0BFU-35" style="edgeStyle=orthogonalEdgeStyle;rounded=0;orthogonalLoop=1;jettySize=auto;html=1;exitX=0;exitY=0.5;exitDx=0;exitDy=0;entryX=1;entryY=0.25;entryDx=0;entryDy=0;" parent="1" source="fApX5C197WPYJs1WFiMs-74" target="fApX5C197WPYJs1WFiMs-33" edge="1">
          <mxGeometry relative="1" as="geometry">
            <Array as="points">
              <mxPoint x="610" y="951" />
              <mxPoint x="610" y="882" />
            </Array>
          </mxGeometry>
        </mxCell>
        <mxCell id="fApX5C197WPYJs1WFiMs-74" value="Status" style="rounded=0;whiteSpace=wrap;html=1;fillColor=#f8cecc;strokeColor=none;fontStyle=1" parent="1" vertex="1">
          <mxGeometry x="672" y="926" width="120" height="50" as="geometry" />
        </mxCell>
        <mxCell id="fApX5C197WPYJs1WFiMs-76" style="edgeStyle=orthogonalEdgeStyle;rounded=0;orthogonalLoop=1;jettySize=auto;html=1;exitX=0.5;exitY=1;exitDx=0;exitDy=0;" parent="1" edge="1">
          <mxGeometry relative="1" as="geometry">
            <mxPoint x="790" y="925" as="sourcePoint" />
            <mxPoint x="790" y="925" as="targetPoint" />
          </mxGeometry>
        </mxCell>
        <mxCell id="fApX5C197WPYJs1WFiMs-78" value="Status" style="ellipse;whiteSpace=wrap;html=1;" parent="1" vertex="1">
          <mxGeometry x="759" y="869" width="76" height="40" as="geometry" />
        </mxCell>
        <mxCell id="fApX5C197WPYJs1WFiMs-79" value="StatusID" style="ellipse;whiteSpace=wrap;html=1;" parent="1" vertex="1">
          <mxGeometry x="628" y="865" width="76" height="40" as="geometry" />
        </mxCell>
        <mxCell id="fApX5C197WPYJs1WFiMs-80" style="edgeStyle=orthogonalEdgeStyle;rounded=0;orthogonalLoop=1;jettySize=auto;html=1;entryX=1;entryY=0.5;entryDx=0;entryDy=0;" parent="1" source="fApX5C197WPYJs1WFiMs-83" target="fApX5C197WPYJs1WFiMs-86" edge="1">
          <mxGeometry relative="1" as="geometry" />
        </mxCell>
        <mxCell id="fApX5C197WPYJs1WFiMs-81" style="edgeStyle=orthogonalEdgeStyle;rounded=0;orthogonalLoop=1;jettySize=auto;html=1;entryX=0;entryY=0.4;entryDx=0;entryDy=0;entryPerimeter=0;" parent="1" source="fApX5C197WPYJs1WFiMs-83" target="fApX5C197WPYJs1WFiMs-85" edge="1">
          <mxGeometry relative="1" as="geometry" />
        </mxCell>
        <mxCell id="2_Y_Nw8HnQZ8uV6R0BFU-32" style="edgeStyle=orthogonalEdgeStyle;rounded=0;orthogonalLoop=1;jettySize=auto;html=1;exitX=0.5;exitY=1;exitDx=0;exitDy=0;entryX=0.75;entryY=0;entryDx=0;entryDy=0;" parent="1" source="fApX5C197WPYJs1WFiMs-83" target="fApX5C197WPYJs1WFiMs-33" edge="1">
          <mxGeometry relative="1" as="geometry">
            <Array as="points">
              <mxPoint x="733" y="840" />
              <mxPoint x="464" y="840" />
            </Array>
          </mxGeometry>
        </mxCell>
        <mxCell id="fApX5C197WPYJs1WFiMs-83" value="Delivery" style="rounded=0;whiteSpace=wrap;html=1;fillColor=#f8cecc;strokeColor=none;fontStyle=1" parent="1" vertex="1">
          <mxGeometry x="673" y="735.5" width="120" height="50" as="geometry" />
        </mxCell>
        <mxCell id="fApX5C197WPYJs1WFiMs-84" style="edgeStyle=orthogonalEdgeStyle;rounded=0;orthogonalLoop=1;jettySize=auto;html=1;exitX=0.5;exitY=1;exitDx=0;exitDy=0;" parent="1" edge="1">
          <mxGeometry relative="1" as="geometry">
            <mxPoint x="791" y="734.5" as="sourcePoint" />
            <mxPoint x="791" y="734.5" as="targetPoint" />
          </mxGeometry>
        </mxCell>
        <mxCell id="fApX5C197WPYJs1WFiMs-85" value="DateStatus" style="ellipse;whiteSpace=wrap;html=1;" parent="1" vertex="1">
          <mxGeometry x="759" y="680.5" width="76" height="40" as="geometry" />
        </mxCell>
        <mxCell id="fApX5C197WPYJs1WFiMs-86" value="DeliveryID" style="ellipse;whiteSpace=wrap;html=1;" parent="1" vertex="1">
          <mxGeometry x="629" y="676.5" width="76" height="40" as="geometry" />
        </mxCell>
        <mxCell id="2_Y_Nw8HnQZ8uV6R0BFU-1" value="Mail" style="ellipse;whiteSpace=wrap;html=1;align=center;dashed=1;" parent="1" vertex="1">
          <mxGeometry x="464" y="677.5" width="80" height="40" as="geometry" />
        </mxCell>
        <mxCell id="2_Y_Nw8HnQZ8uV6R0BFU-2" value="PayTypeID" style="ellipse;whiteSpace=wrap;html=1;fontSize=11;" parent="1" vertex="1">
          <mxGeometry x="318" y="1110" width="80" height="40" as="geometry" />
        </mxCell>
        <mxCell id="2_Y_Nw8HnQZ8uV6R0BFU-3" value="OrderDate" style="ellipse;whiteSpace=wrap;html=1;fontSize=11;" parent="1" vertex="1">
          <mxGeometry x="318" y="1173" width="80" height="40" as="geometry" />
        </mxCell>
        <mxCell id="2_Y_Nw8HnQZ8uV6R0BFU-4" value="TotalPrice" style="ellipse;whiteSpace=wrap;html=1;fontSize=11;" parent="1" vertex="1">
          <mxGeometry x="466" y="1173" width="80" height="40" as="geometry" />
        </mxCell>
        <mxCell id="2_Y_Nw8HnQZ8uV6R0BFU-5" value="StatusChange" style="ellipse;whiteSpace=wrap;html=1;fontSize=11;" parent="1" vertex="1">
          <mxGeometry x="466" y="1227" width="80" height="40" as="geometry" />
        </mxCell>
        <mxCell id="2_Y_Nw8HnQZ8uV6R0BFU-25" style="edgeStyle=orthogonalEdgeStyle;rounded=0;orthogonalLoop=1;jettySize=auto;html=1;entryX=1;entryY=0.5;entryDx=0;entryDy=0;" parent="1" source="2_Y_Nw8HnQZ8uV6R0BFU-27" target="2_Y_Nw8HnQZ8uV6R0BFU-30" edge="1">
          <mxGeometry relative="1" as="geometry" />
        </mxCell>
        <mxCell id="2_Y_Nw8HnQZ8uV6R0BFU-26" style="edgeStyle=orthogonalEdgeStyle;rounded=0;orthogonalLoop=1;jettySize=auto;html=1;entryX=0;entryY=0.4;entryDx=0;entryDy=0;entryPerimeter=0;" parent="1" source="2_Y_Nw8HnQZ8uV6R0BFU-27" target="2_Y_Nw8HnQZ8uV6R0BFU-29" edge="1">
          <mxGeometry relative="1" as="geometry" />
        </mxCell>
        <mxCell id="2_Y_Nw8HnQZ8uV6R0BFU-34" style="edgeStyle=orthogonalEdgeStyle;rounded=0;orthogonalLoop=1;jettySize=auto;html=1;entryX=1;entryY=0.75;entryDx=0;entryDy=0;exitX=0.5;exitY=0;exitDx=0;exitDy=0;" parent="1" source="2_Y_Nw8HnQZ8uV6R0BFU-27" target="fApX5C197WPYJs1WFiMs-33" edge="1">
          <mxGeometry relative="1" as="geometry">
            <Array as="points">
              <mxPoint x="744" y="1010" />
              <mxPoint x="590" y="1010" />
              <mxPoint x="590" y="907" />
            </Array>
          </mxGeometry>
        </mxCell>
        <mxCell id="2_Y_Nw8HnQZ8uV6R0BFU-27" value="Pay" style="rounded=0;whiteSpace=wrap;html=1;fillColor=none;strokeColor=default;fontStyle=1" parent="1" vertex="1">
          <mxGeometry x="673" y="1071" width="120" height="50" as="geometry" />
        </mxCell>
        <mxCell id="2_Y_Nw8HnQZ8uV6R0BFU-28" style="edgeStyle=orthogonalEdgeStyle;rounded=0;orthogonalLoop=1;jettySize=auto;html=1;exitX=0.5;exitY=1;exitDx=0;exitDy=0;" parent="1" edge="1">
          <mxGeometry relative="1" as="geometry">
            <mxPoint x="791" y="1070" as="sourcePoint" />
            <mxPoint x="791" y="1070" as="targetPoint" />
          </mxGeometry>
        </mxCell>
        <mxCell id="2_Y_Nw8HnQZ8uV6R0BFU-29" value="PayType" style="ellipse;whiteSpace=wrap;html=1;" parent="1" vertex="1">
          <mxGeometry x="762" y="1143" width="76" height="40" as="geometry" />
        </mxCell>
        <mxCell id="2_Y_Nw8HnQZ8uV6R0BFU-30" value="PayTypeID" style="ellipse;whiteSpace=wrap;html=1;" parent="1" vertex="1">
          <mxGeometry x="632" y="1139" width="76" height="40" as="geometry" />
        </mxCell>
      </root>
    </mxGraphModel>
  </diagram>
  <diagram id="olurmlpTIaS9eGWPFwW2" name="Logical model">
    <mxGraphModel dx="2261" dy="2063" grid="1" gridSize="8" guides="1" tooltips="1" connect="1" arrows="1" fold="1" page="1" pageScale="1" pageWidth="827" pageHeight="1169" math="0" shadow="0">
      <root>
        <mxCell id="mvMvy7dG3c4JRi--3KPx-0" />
        <mxCell id="mvMvy7dG3c4JRi--3KPx-1" parent="mvMvy7dG3c4JRi--3KPx-0" />
        <mxCell id="y8KlEEk6bEylDuwSFQ7T-3" style="edgeStyle=orthogonalEdgeStyle;rounded=0;orthogonalLoop=1;jettySize=auto;html=1;exitX=0.5;exitY=0;exitDx=0;exitDy=0;entryX=0.5;entryY=1;entryDx=0;entryDy=0;" parent="mvMvy7dG3c4JRi--3KPx-1" source="DRcCi3waN4KpAKrVJEXy-0" target="5qw2cj9_T8GfjLFqN67_-34" edge="1">
          <mxGeometry relative="1" as="geometry" />
        </mxCell>
        <mxCell id="DRcCi3waN4KpAKrVJEXy-0" value="Pay" style="swimlane;fontStyle=0;childLayout=stackLayout;horizontal=1;startSize=26;horizontalStack=0;resizeParent=1;resizeParentMax=0;resizeLast=0;collapsible=1;marginBottom=0;align=center;fontSize=14;" parent="mvMvy7dG3c4JRi--3KPx-1" vertex="1">
          <mxGeometry x="168" y="576" width="160" height="86" as="geometry" />
        </mxCell>
        <mxCell id="DRcCi3waN4KpAKrVJEXy-1" value="&lt;div align=&quot;left&quot;&gt;PayTypeID INT&lt;/div&gt;" style="text;strokeColor=none;fillColor=none;spacingLeft=4;spacingRight=4;overflow=hidden;rotatable=0;points=[[0,0.5],[1,0.5]];portConstraint=eastwest;fontSize=12;whiteSpace=wrap;html=1;" parent="DRcCi3waN4KpAKrVJEXy-0" vertex="1">
          <mxGeometry y="26" width="160" height="30" as="geometry" />
        </mxCell>
        <mxCell id="DRcCi3waN4KpAKrVJEXy-2" value="PayType CHAR" style="text;strokeColor=none;fillColor=none;spacingLeft=4;spacingRight=4;overflow=hidden;rotatable=0;points=[[0,0.5],[1,0.5]];portConstraint=eastwest;fontSize=12;whiteSpace=wrap;html=1;" parent="DRcCi3waN4KpAKrVJEXy-0" vertex="1">
          <mxGeometry y="56" width="160" height="30" as="geometry" />
        </mxCell>
        <mxCell id="5qw2cj9_T8GfjLFqN67_-0" value="Status" style="swimlane;fontStyle=0;childLayout=stackLayout;horizontal=1;startSize=26;horizontalStack=0;resizeParent=1;resizeParentMax=0;resizeLast=0;collapsible=1;marginBottom=0;align=center;fontSize=14;" parent="mvMvy7dG3c4JRi--3KPx-1" vertex="1">
          <mxGeometry x="488" y="428" width="160" height="86" as="geometry" />
        </mxCell>
        <mxCell id="5qw2cj9_T8GfjLFqN67_-1" value="&lt;div align=&quot;left&quot;&gt;StatusID INT&lt;/div&gt;" style="text;strokeColor=none;fillColor=none;spacingLeft=4;spacingRight=4;overflow=hidden;rotatable=0;points=[[0,0.5],[1,0.5]];portConstraint=eastwest;fontSize=12;whiteSpace=wrap;html=1;" parent="5qw2cj9_T8GfjLFqN67_-0" vertex="1">
          <mxGeometry y="26" width="160" height="30" as="geometry" />
        </mxCell>
        <mxCell id="5qw2cj9_T8GfjLFqN67_-2" value="Status CHAR" style="text;strokeColor=none;fillColor=none;spacingLeft=4;spacingRight=4;overflow=hidden;rotatable=0;points=[[0,0.5],[1,0.5]];portConstraint=eastwest;fontSize=12;whiteSpace=wrap;html=1;" parent="5qw2cj9_T8GfjLFqN67_-0" vertex="1">
          <mxGeometry y="56" width="160" height="30" as="geometry" />
        </mxCell>
        <mxCell id="5qw2cj9_T8GfjLFqN67_-3" value="Delivery" style="swimlane;fontStyle=0;childLayout=stackLayout;horizontal=1;startSize=26;horizontalStack=0;resizeParent=1;resizeParentMax=0;resizeLast=0;collapsible=1;marginBottom=0;align=center;fontSize=14;" parent="mvMvy7dG3c4JRi--3KPx-1" vertex="1">
          <mxGeometry x="488" y="172" width="160" height="86" as="geometry" />
        </mxCell>
        <mxCell id="5qw2cj9_T8GfjLFqN67_-4" value="&lt;div align=&quot;left&quot;&gt;DeliveryID INT&lt;/div&gt;" style="text;strokeColor=none;fillColor=none;spacingLeft=4;spacingRight=4;overflow=hidden;rotatable=0;points=[[0,0.5],[1,0.5]];portConstraint=eastwest;fontSize=12;whiteSpace=wrap;html=1;" parent="5qw2cj9_T8GfjLFqN67_-3" vertex="1">
          <mxGeometry y="26" width="160" height="30" as="geometry" />
        </mxCell>
        <mxCell id="5qw2cj9_T8GfjLFqN67_-5" value="DeliveryType CHAR" style="text;strokeColor=none;fillColor=none;spacingLeft=4;spacingRight=4;overflow=hidden;rotatable=0;points=[[0,0.5],[1,0.5]];portConstraint=eastwest;fontSize=12;whiteSpace=wrap;html=1;" parent="5qw2cj9_T8GfjLFqN67_-3" vertex="1">
          <mxGeometry y="56" width="160" height="30" as="geometry" />
        </mxCell>
        <mxCell id="y8KlEEk6bEylDuwSFQ7T-0" style="edgeStyle=orthogonalEdgeStyle;rounded=0;orthogonalLoop=1;jettySize=auto;html=1;exitX=0.5;exitY=1;exitDx=0;exitDy=0;entryX=0.5;entryY=0;entryDx=0;entryDy=0;" parent="mvMvy7dG3c4JRi--3KPx-1" source="5qw2cj9_T8GfjLFqN67_-6" target="5qw2cj9_T8GfjLFqN67_-34" edge="1">
          <mxGeometry relative="1" as="geometry" />
        </mxCell>
        <mxCell id="5qw2cj9_T8GfjLFqN67_-6" value="Client" style="swimlane;fontStyle=0;childLayout=stackLayout;horizontal=1;startSize=26;horizontalStack=0;resizeParent=1;resizeParentMax=0;resizeLast=0;collapsible=1;marginBottom=0;align=center;fontSize=14;" parent="mvMvy7dG3c4JRi--3KPx-1" vertex="1">
          <mxGeometry x="168" y="-156" width="160" height="266" as="geometry" />
        </mxCell>
        <mxCell id="5qw2cj9_T8GfjLFqN67_-7" value="ClientID INT" style="text;strokeColor=none;fillColor=none;spacingLeft=4;spacingRight=4;overflow=hidden;rotatable=0;points=[[0,0.5],[1,0.5]];portConstraint=eastwest;fontSize=12;whiteSpace=wrap;html=1;" parent="5qw2cj9_T8GfjLFqN67_-6" vertex="1">
          <mxGeometry y="26" width="160" height="30" as="geometry" />
        </mxCell>
        <mxCell id="5qw2cj9_T8GfjLFqN67_-8" value="FirsrName CHAR" style="text;strokeColor=none;fillColor=none;spacingLeft=4;spacingRight=4;overflow=hidden;rotatable=0;points=[[0,0.5],[1,0.5]];portConstraint=eastwest;fontSize=12;whiteSpace=wrap;html=1;" parent="5qw2cj9_T8GfjLFqN67_-6" vertex="1">
          <mxGeometry y="56" width="160" height="30" as="geometry" />
        </mxCell>
        <mxCell id="5qw2cj9_T8GfjLFqN67_-9" value="LastName CHAR" style="text;strokeColor=none;fillColor=none;spacingLeft=4;spacingRight=4;overflow=hidden;rotatable=0;points=[[0,0.5],[1,0.5]];portConstraint=eastwest;fontSize=12;whiteSpace=wrap;html=1;" parent="5qw2cj9_T8GfjLFqN67_-6" vertex="1">
          <mxGeometry y="86" width="160" height="30" as="geometry" />
        </mxCell>
        <mxCell id="5qw2cj9_T8GfjLFqN67_-10" value="Gender CHAR" style="text;strokeColor=none;fillColor=none;spacingLeft=4;spacingRight=4;overflow=hidden;rotatable=0;points=[[0,0.5],[1,0.5]];portConstraint=eastwest;fontSize=12;whiteSpace=wrap;html=1;" parent="5qw2cj9_T8GfjLFqN67_-6" vertex="1">
          <mxGeometry y="116" width="160" height="30" as="geometry" />
        </mxCell>
        <mxCell id="5qw2cj9_T8GfjLFqN67_-11" value="Birthday DATE" style="text;strokeColor=none;fillColor=none;spacingLeft=4;spacingRight=4;overflow=hidden;rotatable=0;points=[[0,0.5],[1,0.5]];portConstraint=eastwest;fontSize=12;whiteSpace=wrap;html=1;" parent="5qw2cj9_T8GfjLFqN67_-6" vertex="1">
          <mxGeometry y="146" width="160" height="30" as="geometry" />
        </mxCell>
        <mxCell id="5qw2cj9_T8GfjLFqN67_-12" value="PassportID CHAR" style="text;strokeColor=none;fillColor=none;spacingLeft=4;spacingRight=4;overflow=hidden;rotatable=0;points=[[0,0.5],[1,0.5]];portConstraint=eastwest;fontSize=12;whiteSpace=wrap;html=1;" parent="5qw2cj9_T8GfjLFqN67_-6" vertex="1">
          <mxGeometry y="176" width="160" height="30" as="geometry" />
        </mxCell>
        <mxCell id="5qw2cj9_T8GfjLFqN67_-13" value="TelNumber CHAR" style="text;strokeColor=none;fillColor=none;spacingLeft=4;spacingRight=4;overflow=hidden;rotatable=0;points=[[0,0.5],[1,0.5]];portConstraint=eastwest;fontSize=12;whiteSpace=wrap;html=1;" parent="5qw2cj9_T8GfjLFqN67_-6" vertex="1">
          <mxGeometry y="206" width="160" height="30" as="geometry" />
        </mxCell>
        <mxCell id="5qw2cj9_T8GfjLFqN67_-14" value="Mail CHAR" style="text;strokeColor=none;fillColor=none;spacingLeft=4;spacingRight=4;overflow=hidden;rotatable=0;points=[[0,0.5],[1,0.5]];portConstraint=eastwest;fontSize=12;whiteSpace=wrap;html=1;" parent="5qw2cj9_T8GfjLFqN67_-6" vertex="1">
          <mxGeometry y="236" width="160" height="30" as="geometry" />
        </mxCell>
        <mxCell id="5qw2cj9_T8GfjLFqN67_-15" value="Vendor" style="swimlane;fontStyle=0;childLayout=stackLayout;horizontal=1;startSize=26;horizontalStack=0;resizeParent=1;resizeParentMax=0;resizeLast=0;collapsible=1;marginBottom=0;align=center;fontSize=14;" parent="mvMvy7dG3c4JRi--3KPx-1" vertex="1">
          <mxGeometry x="-152" y="383" width="160" height="176" as="geometry" />
        </mxCell>
        <mxCell id="5qw2cj9_T8GfjLFqN67_-16" value="VendorID INT" style="text;strokeColor=none;fillColor=none;spacingLeft=4;spacingRight=4;overflow=hidden;rotatable=0;points=[[0,0.5],[1,0.5]];portConstraint=eastwest;fontSize=12;whiteSpace=wrap;html=1;" parent="5qw2cj9_T8GfjLFqN67_-15" vertex="1">
          <mxGeometry y="26" width="160" height="30" as="geometry" />
        </mxCell>
        <mxCell id="5qw2cj9_T8GfjLFqN67_-17" value="Name CHAR" style="text;strokeColor=none;fillColor=none;spacingLeft=4;spacingRight=4;overflow=hidden;rotatable=0;points=[[0,0.5],[1,0.5]];portConstraint=eastwest;fontSize=12;whiteSpace=wrap;html=1;" parent="5qw2cj9_T8GfjLFqN67_-15" vertex="1">
          <mxGeometry y="56" width="160" height="30" as="geometry" />
        </mxCell>
        <mxCell id="5qw2cj9_T8GfjLFqN67_-18" value="ActiveFlag BOOL" style="text;strokeColor=none;fillColor=none;spacingLeft=4;spacingRight=4;overflow=hidden;rotatable=0;points=[[0,0.5],[1,0.5]];portConstraint=eastwest;fontSize=12;whiteSpace=wrap;html=1;" parent="5qw2cj9_T8GfjLFqN67_-15" vertex="1">
          <mxGeometry y="86" width="160" height="30" as="geometry" />
        </mxCell>
        <mxCell id="5qw2cj9_T8GfjLFqN67_-19" value="WebURL CHAR" style="text;strokeColor=none;fillColor=none;spacingLeft=4;spacingRight=4;overflow=hidden;rotatable=0;points=[[0,0.5],[1,0.5]];portConstraint=eastwest;fontSize=12;whiteSpace=wrap;html=1;" parent="5qw2cj9_T8GfjLFqN67_-15" vertex="1">
          <mxGeometry y="116" width="160" height="30" as="geometry" />
        </mxCell>
        <mxCell id="5qw2cj9_T8GfjLFqN67_-20" value="ModifiedeDate DATE" style="text;strokeColor=none;fillColor=none;spacingLeft=4;spacingRight=4;overflow=hidden;rotatable=0;points=[[0,0.5],[1,0.5]];portConstraint=eastwest;fontSize=12;whiteSpace=wrap;html=1;" parent="5qw2cj9_T8GfjLFqN67_-15" vertex="1">
          <mxGeometry y="146" width="160" height="30" as="geometry" />
        </mxCell>
        <mxCell id="5qw2cj9_T8GfjLFqN67_-22" value="Product" style="swimlane;fontStyle=0;childLayout=stackLayout;horizontal=1;startSize=26;horizontalStack=0;resizeParent=1;resizeParentMax=0;resizeLast=0;collapsible=1;marginBottom=0;align=center;fontSize=14;" parent="mvMvy7dG3c4JRi--3KPx-1" vertex="1">
          <mxGeometry x="-152" y="78" width="160" height="266" as="geometry" />
        </mxCell>
        <mxCell id="5qw2cj9_T8GfjLFqN67_-23" value="ProductID INT" style="text;strokeColor=none;fillColor=none;spacingLeft=4;spacingRight=4;overflow=hidden;rotatable=0;points=[[0,0.5],[1,0.5]];portConstraint=eastwest;fontSize=12;whiteSpace=wrap;html=1;" parent="5qw2cj9_T8GfjLFqN67_-22" vertex="1">
          <mxGeometry y="26" width="160" height="30" as="geometry" />
        </mxCell>
        <mxCell id="5qw2cj9_T8GfjLFqN67_-24" value="Name CHAR" style="text;strokeColor=none;fillColor=none;spacingLeft=4;spacingRight=4;overflow=hidden;rotatable=0;points=[[0,0.5],[1,0.5]];portConstraint=eastwest;fontSize=12;whiteSpace=wrap;html=1;" parent="5qw2cj9_T8GfjLFqN67_-22" vertex="1">
          <mxGeometry y="56" width="160" height="30" as="geometry" />
        </mxCell>
        <mxCell id="5qw2cj9_T8GfjLFqN67_-25" value="Group CHAR" style="text;strokeColor=none;fillColor=none;spacingLeft=4;spacingRight=4;overflow=hidden;rotatable=0;points=[[0,0.5],[1,0.5]];portConstraint=eastwest;fontSize=12;whiteSpace=wrap;html=1;" parent="5qw2cj9_T8GfjLFqN67_-22" vertex="1">
          <mxGeometry y="86" width="160" height="30" as="geometry" />
        </mxCell>
        <mxCell id="5qw2cj9_T8GfjLFqN67_-26" value="Brand CHAR" style="text;strokeColor=none;fillColor=none;spacingLeft=4;spacingRight=4;overflow=hidden;rotatable=0;points=[[0,0.5],[1,0.5]];portConstraint=eastwest;fontSize=12;whiteSpace=wrap;html=1;" parent="5qw2cj9_T8GfjLFqN67_-22" vertex="1">
          <mxGeometry y="116" width="160" height="30" as="geometry" />
        </mxCell>
        <mxCell id="5qw2cj9_T8GfjLFqN67_-27" value="Model CHAR" style="text;strokeColor=none;fillColor=none;spacingLeft=4;spacingRight=4;overflow=hidden;rotatable=0;points=[[0,0.5],[1,0.5]];portConstraint=eastwest;fontSize=12;whiteSpace=wrap;html=1;" parent="5qw2cj9_T8GfjLFqN67_-22" vertex="1">
          <mxGeometry y="146" width="160" height="30" as="geometry" />
        </mxCell>
        <mxCell id="5qw2cj9_T8GfjLFqN67_-31" value="Color CHAR" style="text;strokeColor=none;fillColor=none;spacingLeft=4;spacingRight=4;overflow=hidden;rotatable=0;points=[[0,0.5],[1,0.5]];portConstraint=eastwest;fontSize=12;whiteSpace=wrap;html=1;" parent="5qw2cj9_T8GfjLFqN67_-22" vertex="1">
          <mxGeometry y="176" width="160" height="30" as="geometry" />
        </mxCell>
        <mxCell id="5qw2cj9_T8GfjLFqN67_-32" value="Price FLOAT" style="text;strokeColor=none;fillColor=none;spacingLeft=4;spacingRight=4;overflow=hidden;rotatable=0;points=[[0,0.5],[1,0.5]];portConstraint=eastwest;fontSize=12;whiteSpace=wrap;html=1;" parent="5qw2cj9_T8GfjLFqN67_-22" vertex="1">
          <mxGeometry y="206" width="160" height="30" as="geometry" />
        </mxCell>
        <mxCell id="5qw2cj9_T8GfjLFqN67_-33" value="&lt;div align=&quot;left&quot;&gt;VendorPrice FLOAT&lt;/div&gt;" style="text;strokeColor=none;fillColor=none;spacingLeft=4;spacingRight=4;overflow=hidden;rotatable=0;points=[[0,0.5],[1,0.5]];portConstraint=eastwest;fontSize=12;whiteSpace=wrap;html=1;" parent="5qw2cj9_T8GfjLFqN67_-22" vertex="1">
          <mxGeometry y="236" width="160" height="30" as="geometry" />
        </mxCell>
        <mxCell id="5qw2cj9_T8GfjLFqN67_-34" value="Order" style="swimlane;fontStyle=0;childLayout=stackLayout;horizontal=1;startSize=26;horizontalStack=0;resizeParent=1;resizeParentMax=0;resizeLast=0;collapsible=1;marginBottom=0;align=center;fontSize=14;" parent="mvMvy7dG3c4JRi--3KPx-1" vertex="1">
          <mxGeometry x="168" y="172" width="160" height="356" as="geometry" />
        </mxCell>
        <mxCell id="5qw2cj9_T8GfjLFqN67_-35" value="OrderID INT" style="text;strokeColor=none;fillColor=none;spacingLeft=4;spacingRight=4;overflow=hidden;rotatable=0;points=[[0,0.5],[1,0.5]];portConstraint=eastwest;fontSize=12;whiteSpace=wrap;html=1;" parent="5qw2cj9_T8GfjLFqN67_-34" vertex="1">
          <mxGeometry y="26" width="160" height="30" as="geometry" />
        </mxCell>
        <mxCell id="5qw2cj9_T8GfjLFqN67_-36" value="ClientID INT" style="text;strokeColor=none;fillColor=none;spacingLeft=4;spacingRight=4;overflow=hidden;rotatable=0;points=[[0,0.5],[1,0.5]];portConstraint=eastwest;fontSize=12;whiteSpace=wrap;html=1;" parent="5qw2cj9_T8GfjLFqN67_-34" vertex="1">
          <mxGeometry y="56" width="160" height="30" as="geometry" />
        </mxCell>
        <mxCell id="5qw2cj9_T8GfjLFqN67_-37" value="ProductID INT" style="text;strokeColor=none;fillColor=none;spacingLeft=4;spacingRight=4;overflow=hidden;rotatable=0;points=[[0,0.5],[1,0.5]];portConstraint=eastwest;fontSize=12;whiteSpace=wrap;html=1;" parent="5qw2cj9_T8GfjLFqN67_-34" vertex="1">
          <mxGeometry y="86" width="160" height="30" as="geometry" />
        </mxCell>
        <mxCell id="5qw2cj9_T8GfjLFqN67_-40" value="DeliveryID INT" style="text;strokeColor=none;fillColor=none;spacingLeft=4;spacingRight=4;overflow=hidden;rotatable=0;points=[[0,0.5],[1,0.5]];portConstraint=eastwest;fontSize=12;whiteSpace=wrap;html=1;" parent="5qw2cj9_T8GfjLFqN67_-34" vertex="1">
          <mxGeometry y="116" width="160" height="30" as="geometry" />
        </mxCell>
        <mxCell id="5qw2cj9_T8GfjLFqN67_-44" value="&lt;div align=&quot;left&quot;&gt;VendorID INT&lt;br&gt;&lt;/div&gt;" style="text;strokeColor=none;fillColor=none;spacingLeft=4;spacingRight=4;overflow=hidden;rotatable=0;points=[[0,0.5],[1,0.5]];portConstraint=eastwest;fontSize=12;whiteSpace=wrap;html=1;" parent="5qw2cj9_T8GfjLFqN67_-34" vertex="1">
          <mxGeometry y="146" width="160" height="30" as="geometry" />
        </mxCell>
        <mxCell id="5qw2cj9_T8GfjLFqN67_-41" value="StatusID INT" style="text;strokeColor=none;fillColor=none;spacingLeft=4;spacingRight=4;overflow=hidden;rotatable=0;points=[[0,0.5],[1,0.5]];portConstraint=eastwest;fontSize=12;whiteSpace=wrap;html=1;" parent="5qw2cj9_T8GfjLFqN67_-34" vertex="1">
          <mxGeometry y="176" width="160" height="30" as="geometry" />
        </mxCell>
        <mxCell id="5qw2cj9_T8GfjLFqN67_-43" value="PayTypeID" style="text;strokeColor=none;fillColor=none;spacingLeft=4;spacingRight=4;overflow=hidden;rotatable=0;points=[[0,0.5],[1,0.5]];portConstraint=eastwest;fontSize=12;whiteSpace=wrap;html=1;" parent="5qw2cj9_T8GfjLFqN67_-34" vertex="1">
          <mxGeometry y="206" width="160" height="30" as="geometry" />
        </mxCell>
        <mxCell id="5qw2cj9_T8GfjLFqN67_-38" value="Quantity INT" style="text;strokeColor=none;fillColor=none;spacingLeft=4;spacingRight=4;overflow=hidden;rotatable=0;points=[[0,0.5],[1,0.5]];portConstraint=eastwest;fontSize=12;whiteSpace=wrap;html=1;" parent="5qw2cj9_T8GfjLFqN67_-34" vertex="1">
          <mxGeometry y="236" width="160" height="30" as="geometry" />
        </mxCell>
        <mxCell id="5qw2cj9_T8GfjLFqN67_-39" value="Orderdate DATE" style="text;strokeColor=none;fillColor=none;spacingLeft=4;spacingRight=4;overflow=hidden;rotatable=0;points=[[0,0.5],[1,0.5]];portConstraint=eastwest;fontSize=12;whiteSpace=wrap;html=1;" parent="5qw2cj9_T8GfjLFqN67_-34" vertex="1">
          <mxGeometry y="266" width="160" height="30" as="geometry" />
        </mxCell>
        <mxCell id="5qw2cj9_T8GfjLFqN67_-42" value="TotalPrice FLOAT" style="text;strokeColor=none;fillColor=none;spacingLeft=4;spacingRight=4;overflow=hidden;rotatable=0;points=[[0,0.5],[1,0.5]];portConstraint=eastwest;fontSize=12;whiteSpace=wrap;html=1;" parent="5qw2cj9_T8GfjLFqN67_-34" vertex="1">
          <mxGeometry y="296" width="160" height="30" as="geometry" />
        </mxCell>
        <mxCell id="SdqumtXPfIXFAChxtjsO-0" value="StatusChange DATE" style="text;strokeColor=none;fillColor=none;spacingLeft=4;spacingRight=4;overflow=hidden;rotatable=0;points=[[0,0.5],[1,0.5]];portConstraint=eastwest;fontSize=12;whiteSpace=wrap;html=1;" parent="5qw2cj9_T8GfjLFqN67_-34" vertex="1">
          <mxGeometry y="326" width="160" height="30" as="geometry" />
        </mxCell>
        <mxCell id="SdqumtXPfIXFAChxtjsO-1" style="edgeStyle=orthogonalEdgeStyle;rounded=0;orthogonalLoop=1;jettySize=auto;html=1;exitX=1;exitY=0.5;exitDx=0;exitDy=0;entryX=0;entryY=0.5;entryDx=0;entryDy=0;" parent="mvMvy7dG3c4JRi--3KPx-1" source="5qw2cj9_T8GfjLFqN67_-26" target="5qw2cj9_T8GfjLFqN67_-40" edge="1">
          <mxGeometry relative="1" as="geometry" />
        </mxCell>
        <mxCell id="SdqumtXPfIXFAChxtjsO-2" style="edgeStyle=orthogonalEdgeStyle;rounded=0;orthogonalLoop=1;jettySize=auto;html=1;exitX=1;exitY=0.5;exitDx=0;exitDy=0;entryX=0;entryY=0.5;entryDx=0;entryDy=0;" parent="mvMvy7dG3c4JRi--3KPx-1" source="5qw2cj9_T8GfjLFqN67_-18" target="5qw2cj9_T8GfjLFqN67_-38" edge="1">
          <mxGeometry relative="1" as="geometry" />
        </mxCell>
        <mxCell id="SdqumtXPfIXFAChxtjsO-3" style="edgeStyle=orthogonalEdgeStyle;rounded=0;orthogonalLoop=1;jettySize=auto;html=1;exitX=0;exitY=0.5;exitDx=0;exitDy=0;entryX=1;entryY=0.5;entryDx=0;entryDy=0;" parent="mvMvy7dG3c4JRi--3KPx-1" source="5qw2cj9_T8GfjLFqN67_-4" target="5qw2cj9_T8GfjLFqN67_-40" edge="1">
          <mxGeometry relative="1" as="geometry" />
        </mxCell>
        <mxCell id="SdqumtXPfIXFAChxtjsO-4" style="edgeStyle=orthogonalEdgeStyle;rounded=0;orthogonalLoop=1;jettySize=auto;html=1;entryX=1;entryY=0.5;entryDx=0;entryDy=0;" parent="mvMvy7dG3c4JRi--3KPx-1" source="5qw2cj9_T8GfjLFqN67_-1" target="5qw2cj9_T8GfjLFqN67_-38" edge="1">
          <mxGeometry relative="1" as="geometry" />
        </mxCell>
      </root>
    </mxGraphModel>
  </diagram>
  <diagram id="X1zYV37y0PijSPvju1sp" name="Physical model">
    <mxGraphModel dx="1434" dy="2063" grid="1" gridSize="10" guides="1" tooltips="1" connect="1" arrows="1" fold="1" page="1" pageScale="1" pageWidth="827" pageHeight="1169" math="0" shadow="0">
      <root>
        <mxCell id="0" />
        <mxCell id="1" parent="0" />
        <mxCell id="z7V3eBBZ9j4XnTCli53g-1" value="Order" style="shape=table;startSize=30;container=1;collapsible=1;childLayout=tableLayout;fixedRows=1;rowLines=0;fontStyle=1;align=center;resizeLast=1;html=1;" parent="1" vertex="1">
          <mxGeometry x="1140" y="280" width="180" height="360" as="geometry" />
        </mxCell>
        <mxCell id="z7V3eBBZ9j4XnTCli53g-2" value="" style="shape=tableRow;horizontal=0;startSize=0;swimlaneHead=0;swimlaneBody=0;fillColor=none;collapsible=0;dropTarget=0;points=[[0,0.5],[1,0.5]];portConstraint=eastwest;top=0;left=0;right=0;bottom=0;" parent="z7V3eBBZ9j4XnTCli53g-1" vertex="1">
          <mxGeometry y="30" width="180" height="30" as="geometry" />
        </mxCell>
        <mxCell id="z7V3eBBZ9j4XnTCli53g-3" value="PK" style="shape=partialRectangle;connectable=0;fillColor=none;top=0;left=0;bottom=0;right=0;fontStyle=0;overflow=hidden;whiteSpace=wrap;html=1;" parent="z7V3eBBZ9j4XnTCli53g-2" vertex="1">
          <mxGeometry width="30" height="30" as="geometry">
            <mxRectangle width="30" height="30" as="alternateBounds" />
          </mxGeometry>
        </mxCell>
        <mxCell id="z7V3eBBZ9j4XnTCli53g-4" value="OrderID INT " style="shape=partialRectangle;connectable=0;fillColor=none;top=0;left=0;bottom=0;right=0;align=left;spacingLeft=6;fontStyle=0;overflow=hidden;whiteSpace=wrap;html=1;" parent="z7V3eBBZ9j4XnTCli53g-2" vertex="1">
          <mxGeometry x="30" width="150" height="30" as="geometry">
            <mxRectangle width="150" height="30" as="alternateBounds" />
          </mxGeometry>
        </mxCell>
        <mxCell id="z7V3eBBZ9j4XnTCli53g-5" value="" style="shape=tableRow;horizontal=0;startSize=0;swimlaneHead=0;swimlaneBody=0;fillColor=none;collapsible=0;dropTarget=0;points=[[0,0.5],[1,0.5]];portConstraint=eastwest;top=0;left=0;right=0;bottom=0;" parent="z7V3eBBZ9j4XnTCli53g-1" vertex="1">
          <mxGeometry y="60" width="180" height="30" as="geometry" />
        </mxCell>
        <mxCell id="z7V3eBBZ9j4XnTCli53g-6" value="FK" style="shape=partialRectangle;connectable=0;fillColor=none;top=0;left=0;bottom=0;right=0;fontStyle=0;overflow=hidden;whiteSpace=wrap;html=1;" parent="z7V3eBBZ9j4XnTCli53g-5" vertex="1">
          <mxGeometry width="30" height="30" as="geometry">
            <mxRectangle width="30" height="30" as="alternateBounds" />
          </mxGeometry>
        </mxCell>
        <mxCell id="z7V3eBBZ9j4XnTCli53g-7" value="ClientID INT" style="shape=partialRectangle;connectable=0;fillColor=none;top=0;left=0;bottom=0;right=0;align=left;spacingLeft=6;fontStyle=0;overflow=hidden;whiteSpace=wrap;html=1;" parent="z7V3eBBZ9j4XnTCli53g-5" vertex="1">
          <mxGeometry x="30" width="150" height="30" as="geometry">
            <mxRectangle width="150" height="30" as="alternateBounds" />
          </mxGeometry>
        </mxCell>
        <mxCell id="z7V3eBBZ9j4XnTCli53g-8" value="" style="shape=tableRow;horizontal=0;startSize=0;swimlaneHead=0;swimlaneBody=0;fillColor=none;collapsible=0;dropTarget=0;points=[[0,0.5],[1,0.5]];portConstraint=eastwest;top=0;left=0;right=0;bottom=0;" parent="z7V3eBBZ9j4XnTCli53g-1" vertex="1">
          <mxGeometry y="90" width="180" height="30" as="geometry" />
        </mxCell>
        <mxCell id="z7V3eBBZ9j4XnTCli53g-9" value="FK" style="shape=partialRectangle;connectable=0;fillColor=none;top=0;left=0;bottom=0;right=0;fontStyle=0;overflow=hidden;whiteSpace=wrap;html=1;" parent="z7V3eBBZ9j4XnTCli53g-8" vertex="1">
          <mxGeometry width="30" height="30" as="geometry">
            <mxRectangle width="30" height="30" as="alternateBounds" />
          </mxGeometry>
        </mxCell>
        <mxCell id="z7V3eBBZ9j4XnTCli53g-10" value="ProductID INT" style="shape=partialRectangle;connectable=0;fillColor=none;top=0;left=0;bottom=0;right=0;align=left;spacingLeft=6;fontStyle=0;overflow=hidden;whiteSpace=wrap;html=1;" parent="z7V3eBBZ9j4XnTCli53g-8" vertex="1">
          <mxGeometry x="30" width="150" height="30" as="geometry">
            <mxRectangle width="150" height="30" as="alternateBounds" />
          </mxGeometry>
        </mxCell>
        <mxCell id="z7V3eBBZ9j4XnTCli53g-11" value="" style="shape=tableRow;horizontal=0;startSize=0;swimlaneHead=0;swimlaneBody=0;fillColor=none;collapsible=0;dropTarget=0;points=[[0,0.5],[1,0.5]];portConstraint=eastwest;top=0;left=0;right=0;bottom=0;" parent="z7V3eBBZ9j4XnTCli53g-1" vertex="1">
          <mxGeometry y="120" width="180" height="30" as="geometry" />
        </mxCell>
        <mxCell id="z7V3eBBZ9j4XnTCli53g-12" value="FK" style="shape=partialRectangle;connectable=0;fillColor=none;top=0;left=0;bottom=0;right=0;fontStyle=0;overflow=hidden;whiteSpace=wrap;html=1;" parent="z7V3eBBZ9j4XnTCli53g-11" vertex="1">
          <mxGeometry width="30" height="30" as="geometry">
            <mxRectangle width="30" height="30" as="alternateBounds" />
          </mxGeometry>
        </mxCell>
        <mxCell id="z7V3eBBZ9j4XnTCli53g-13" value="DeliveryID INT" style="shape=partialRectangle;connectable=0;fillColor=none;top=0;left=0;bottom=0;right=0;align=left;spacingLeft=6;fontStyle=0;overflow=hidden;whiteSpace=wrap;html=1;" parent="z7V3eBBZ9j4XnTCli53g-11" vertex="1">
          <mxGeometry x="30" width="150" height="30" as="geometry">
            <mxRectangle width="150" height="30" as="alternateBounds" />
          </mxGeometry>
        </mxCell>
        <mxCell id="z7V3eBBZ9j4XnTCli53g-14" value="" style="shape=tableRow;horizontal=0;startSize=0;swimlaneHead=0;swimlaneBody=0;fillColor=none;collapsible=0;dropTarget=0;points=[[0,0.5],[1,0.5]];portConstraint=eastwest;top=0;left=0;right=0;bottom=0;" parent="z7V3eBBZ9j4XnTCli53g-1" vertex="1">
          <mxGeometry y="150" width="180" height="30" as="geometry" />
        </mxCell>
        <mxCell id="z7V3eBBZ9j4XnTCli53g-15" value="FK" style="shape=partialRectangle;connectable=0;fillColor=none;top=0;left=0;bottom=0;right=0;fontStyle=0;overflow=hidden;whiteSpace=wrap;html=1;" parent="z7V3eBBZ9j4XnTCli53g-14" vertex="1">
          <mxGeometry width="30" height="30" as="geometry">
            <mxRectangle width="30" height="30" as="alternateBounds" />
          </mxGeometry>
        </mxCell>
        <mxCell id="z7V3eBBZ9j4XnTCli53g-16" value="VendorID INT" style="shape=partialRectangle;connectable=0;fillColor=none;top=0;left=0;bottom=0;right=0;align=left;spacingLeft=6;fontStyle=0;overflow=hidden;whiteSpace=wrap;html=1;" parent="z7V3eBBZ9j4XnTCli53g-14" vertex="1">
          <mxGeometry x="30" width="150" height="30" as="geometry">
            <mxRectangle width="150" height="30" as="alternateBounds" />
          </mxGeometry>
        </mxCell>
        <mxCell id="z7V3eBBZ9j4XnTCli53g-17" value="" style="shape=tableRow;horizontal=0;startSize=0;swimlaneHead=0;swimlaneBody=0;fillColor=none;collapsible=0;dropTarget=0;points=[[0,0.5],[1,0.5]];portConstraint=eastwest;top=0;left=0;right=0;bottom=0;" parent="z7V3eBBZ9j4XnTCli53g-1" vertex="1">
          <mxGeometry y="180" width="180" height="30" as="geometry" />
        </mxCell>
        <mxCell id="z7V3eBBZ9j4XnTCli53g-18" value="FK" style="shape=partialRectangle;connectable=0;fillColor=none;top=0;left=0;bottom=0;right=0;fontStyle=0;overflow=hidden;whiteSpace=wrap;html=1;" parent="z7V3eBBZ9j4XnTCli53g-17" vertex="1">
          <mxGeometry width="30" height="30" as="geometry">
            <mxRectangle width="30" height="30" as="alternateBounds" />
          </mxGeometry>
        </mxCell>
        <mxCell id="z7V3eBBZ9j4XnTCli53g-19" value="StatusID INT" style="shape=partialRectangle;connectable=0;fillColor=none;top=0;left=0;bottom=0;right=0;align=left;spacingLeft=6;fontStyle=0;overflow=hidden;whiteSpace=wrap;html=1;" parent="z7V3eBBZ9j4XnTCli53g-17" vertex="1">
          <mxGeometry x="30" width="150" height="30" as="geometry">
            <mxRectangle width="150" height="30" as="alternateBounds" />
          </mxGeometry>
        </mxCell>
        <mxCell id="z7V3eBBZ9j4XnTCli53g-20" value="" style="shape=tableRow;horizontal=0;startSize=0;swimlaneHead=0;swimlaneBody=0;fillColor=none;collapsible=0;dropTarget=0;points=[[0,0.5],[1,0.5]];portConstraint=eastwest;top=0;left=0;right=0;bottom=1;" parent="z7V3eBBZ9j4XnTCli53g-1" vertex="1">
          <mxGeometry y="210" width="180" height="30" as="geometry" />
        </mxCell>
        <mxCell id="z7V3eBBZ9j4XnTCli53g-21" value="FK" style="shape=partialRectangle;connectable=0;fillColor=none;top=0;left=0;bottom=0;right=0;fontStyle=1;overflow=hidden;whiteSpace=wrap;html=1;" parent="z7V3eBBZ9j4XnTCli53g-20" vertex="1">
          <mxGeometry width="30" height="30" as="geometry">
            <mxRectangle width="30" height="30" as="alternateBounds" />
          </mxGeometry>
        </mxCell>
        <mxCell id="z7V3eBBZ9j4XnTCli53g-22" value="PayTypeID INT" style="shape=partialRectangle;connectable=0;fillColor=none;top=0;left=0;bottom=0;right=0;align=left;spacingLeft=6;fontStyle=5;overflow=hidden;whiteSpace=wrap;html=1;" parent="z7V3eBBZ9j4XnTCli53g-20" vertex="1">
          <mxGeometry x="30" width="150" height="30" as="geometry">
            <mxRectangle width="150" height="30" as="alternateBounds" />
          </mxGeometry>
        </mxCell>
        <mxCell id="z7V3eBBZ9j4XnTCli53g-23" value="" style="shape=tableRow;horizontal=0;startSize=0;swimlaneHead=0;swimlaneBody=0;fillColor=none;collapsible=0;dropTarget=0;points=[[0,0.5],[1,0.5]];portConstraint=eastwest;top=0;left=0;right=0;bottom=0;" parent="z7V3eBBZ9j4XnTCli53g-1" vertex="1">
          <mxGeometry y="240" width="180" height="30" as="geometry" />
        </mxCell>
        <mxCell id="z7V3eBBZ9j4XnTCli53g-24" value="*" style="shape=partialRectangle;connectable=0;fillColor=none;top=0;left=0;bottom=0;right=0;fontStyle=0;overflow=hidden;whiteSpace=wrap;html=1;" parent="z7V3eBBZ9j4XnTCli53g-23" vertex="1">
          <mxGeometry width="30" height="30" as="geometry">
            <mxRectangle width="30" height="30" as="alternateBounds" />
          </mxGeometry>
        </mxCell>
        <mxCell id="z7V3eBBZ9j4XnTCli53g-25" value="Quantity INT" style="shape=partialRectangle;connectable=0;fillColor=none;top=0;left=0;bottom=0;right=0;align=left;spacingLeft=6;fontStyle=0;overflow=hidden;whiteSpace=wrap;html=1;" parent="z7V3eBBZ9j4XnTCli53g-23" vertex="1">
          <mxGeometry x="30" width="150" height="30" as="geometry">
            <mxRectangle width="150" height="30" as="alternateBounds" />
          </mxGeometry>
        </mxCell>
        <mxCell id="z7V3eBBZ9j4XnTCli53g-26" value="" style="shape=tableRow;horizontal=0;startSize=0;swimlaneHead=0;swimlaneBody=0;fillColor=none;collapsible=0;dropTarget=0;points=[[0,0.5],[1,0.5]];portConstraint=eastwest;top=0;left=0;right=0;bottom=0;" parent="z7V3eBBZ9j4XnTCli53g-1" vertex="1">
          <mxGeometry y="270" width="180" height="30" as="geometry" />
        </mxCell>
        <mxCell id="z7V3eBBZ9j4XnTCli53g-27" value="*" style="shape=partialRectangle;connectable=0;fillColor=none;top=0;left=0;bottom=0;right=0;editable=1;overflow=hidden;whiteSpace=wrap;html=1;" parent="z7V3eBBZ9j4XnTCli53g-26" vertex="1">
          <mxGeometry width="30" height="30" as="geometry">
            <mxRectangle width="30" height="30" as="alternateBounds" />
          </mxGeometry>
        </mxCell>
        <mxCell id="z7V3eBBZ9j4XnTCli53g-28" value="OrderDate DATETIME" style="shape=partialRectangle;connectable=0;fillColor=none;top=0;left=0;bottom=0;right=0;align=left;spacingLeft=6;overflow=hidden;whiteSpace=wrap;html=1;" parent="z7V3eBBZ9j4XnTCli53g-26" vertex="1">
          <mxGeometry x="30" width="150" height="30" as="geometry">
            <mxRectangle width="150" height="30" as="alternateBounds" />
          </mxGeometry>
        </mxCell>
        <mxCell id="z7V3eBBZ9j4XnTCli53g-29" value="" style="shape=tableRow;horizontal=0;startSize=0;swimlaneHead=0;swimlaneBody=0;fillColor=none;collapsible=0;dropTarget=0;points=[[0,0.5],[1,0.5]];portConstraint=eastwest;top=0;left=0;right=0;bottom=0;" parent="z7V3eBBZ9j4XnTCli53g-1" vertex="1">
          <mxGeometry y="300" width="180" height="30" as="geometry" />
        </mxCell>
        <mxCell id="z7V3eBBZ9j4XnTCli53g-30" value="*" style="shape=partialRectangle;connectable=0;fillColor=none;top=0;left=0;bottom=0;right=0;editable=1;overflow=hidden;whiteSpace=wrap;html=1;" parent="z7V3eBBZ9j4XnTCli53g-29" vertex="1">
          <mxGeometry width="30" height="30" as="geometry">
            <mxRectangle width="30" height="30" as="alternateBounds" />
          </mxGeometry>
        </mxCell>
        <mxCell id="z7V3eBBZ9j4XnTCli53g-31" value="TotalPrice FLOAT" style="shape=partialRectangle;connectable=0;fillColor=none;top=0;left=0;bottom=0;right=0;align=left;spacingLeft=6;overflow=hidden;whiteSpace=wrap;html=1;" parent="z7V3eBBZ9j4XnTCli53g-29" vertex="1">
          <mxGeometry x="30" width="150" height="30" as="geometry">
            <mxRectangle width="150" height="30" as="alternateBounds" />
          </mxGeometry>
        </mxCell>
        <mxCell id="z7V3eBBZ9j4XnTCli53g-32" value="" style="shape=tableRow;horizontal=0;startSize=0;swimlaneHead=0;swimlaneBody=0;fillColor=none;collapsible=0;dropTarget=0;points=[[0,0.5],[1,0.5]];portConstraint=eastwest;top=0;left=0;right=0;bottom=0;" parent="z7V3eBBZ9j4XnTCli53g-1" vertex="1">
          <mxGeometry y="330" width="180" height="30" as="geometry" />
        </mxCell>
        <mxCell id="z7V3eBBZ9j4XnTCli53g-33" value="*" style="shape=partialRectangle;connectable=0;fillColor=none;top=0;left=0;bottom=0;right=0;editable=1;overflow=hidden;whiteSpace=wrap;html=1;" parent="z7V3eBBZ9j4XnTCli53g-32" vertex="1">
          <mxGeometry width="30" height="30" as="geometry">
            <mxRectangle width="30" height="30" as="alternateBounds" />
          </mxGeometry>
        </mxCell>
        <mxCell id="z7V3eBBZ9j4XnTCli53g-34" value="StatusChange DATE" style="shape=partialRectangle;connectable=0;fillColor=none;top=0;left=0;bottom=0;right=0;align=left;spacingLeft=6;overflow=hidden;whiteSpace=wrap;html=1;" parent="z7V3eBBZ9j4XnTCli53g-32" vertex="1">
          <mxGeometry x="30" width="150" height="30" as="geometry">
            <mxRectangle width="150" height="30" as="alternateBounds" />
          </mxGeometry>
        </mxCell>
        <mxCell id="GarMhUQVC3FnO8lZaiJo-1" value="Product" style="shape=table;startSize=30;container=1;collapsible=1;childLayout=tableLayout;fixedRows=1;rowLines=0;fontStyle=1;align=center;resizeLast=1;html=1;" parent="1" vertex="1">
          <mxGeometry x="780" y="200" width="180" height="270" as="geometry" />
        </mxCell>
        <mxCell id="GarMhUQVC3FnO8lZaiJo-2" value="" style="shape=tableRow;horizontal=0;startSize=0;swimlaneHead=0;swimlaneBody=0;fillColor=none;collapsible=0;dropTarget=0;points=[[0,0.5],[1,0.5]];portConstraint=eastwest;top=0;left=0;right=0;bottom=1;" parent="GarMhUQVC3FnO8lZaiJo-1" vertex="1">
          <mxGeometry y="30" width="180" height="30" as="geometry" />
        </mxCell>
        <mxCell id="GarMhUQVC3FnO8lZaiJo-3" value="PK" style="shape=partialRectangle;connectable=0;fillColor=none;top=0;left=0;bottom=0;right=0;fontStyle=1;overflow=hidden;whiteSpace=wrap;html=1;" parent="GarMhUQVC3FnO8lZaiJo-2" vertex="1">
          <mxGeometry width="30" height="30" as="geometry">
            <mxRectangle width="30" height="30" as="alternateBounds" />
          </mxGeometry>
        </mxCell>
        <mxCell id="GarMhUQVC3FnO8lZaiJo-4" value="PtoductID INT" style="shape=partialRectangle;connectable=0;fillColor=none;top=0;left=0;bottom=0;right=0;align=left;spacingLeft=6;fontStyle=5;overflow=hidden;whiteSpace=wrap;html=1;" parent="GarMhUQVC3FnO8lZaiJo-2" vertex="1">
          <mxGeometry x="30" width="150" height="30" as="geometry">
            <mxRectangle width="150" height="30" as="alternateBounds" />
          </mxGeometry>
        </mxCell>
        <mxCell id="GarMhUQVC3FnO8lZaiJo-5" value="" style="shape=tableRow;horizontal=0;startSize=0;swimlaneHead=0;swimlaneBody=0;fillColor=none;collapsible=0;dropTarget=0;points=[[0,0.5],[1,0.5]];portConstraint=eastwest;top=0;left=0;right=0;bottom=0;" parent="GarMhUQVC3FnO8lZaiJo-1" vertex="1">
          <mxGeometry y="60" width="180" height="30" as="geometry" />
        </mxCell>
        <mxCell id="GarMhUQVC3FnO8lZaiJo-6" value="*" style="shape=partialRectangle;connectable=0;fillColor=none;top=0;left=0;bottom=0;right=0;fontStyle=0;overflow=hidden;whiteSpace=wrap;html=1;" parent="GarMhUQVC3FnO8lZaiJo-5" vertex="1">
          <mxGeometry width="30" height="30" as="geometry">
            <mxRectangle width="30" height="30" as="alternateBounds" />
          </mxGeometry>
        </mxCell>
        <mxCell id="GarMhUQVC3FnO8lZaiJo-7" value="Name NVARCHAR(30)" style="shape=partialRectangle;connectable=0;fillColor=none;top=0;left=0;bottom=0;right=0;align=left;spacingLeft=6;fontStyle=0;overflow=hidden;whiteSpace=wrap;html=1;" parent="GarMhUQVC3FnO8lZaiJo-5" vertex="1">
          <mxGeometry x="30" width="150" height="30" as="geometry">
            <mxRectangle width="150" height="30" as="alternateBounds" />
          </mxGeometry>
        </mxCell>
        <mxCell id="GarMhUQVC3FnO8lZaiJo-8" value="" style="shape=tableRow;horizontal=0;startSize=0;swimlaneHead=0;swimlaneBody=0;fillColor=none;collapsible=0;dropTarget=0;points=[[0,0.5],[1,0.5]];portConstraint=eastwest;top=0;left=0;right=0;bottom=0;" parent="GarMhUQVC3FnO8lZaiJo-1" vertex="1">
          <mxGeometry y="90" width="180" height="30" as="geometry" />
        </mxCell>
        <mxCell id="GarMhUQVC3FnO8lZaiJo-9" value="*" style="shape=partialRectangle;connectable=0;fillColor=none;top=0;left=0;bottom=0;right=0;editable=1;overflow=hidden;whiteSpace=wrap;html=1;" parent="GarMhUQVC3FnO8lZaiJo-8" vertex="1">
          <mxGeometry width="30" height="30" as="geometry">
            <mxRectangle width="30" height="30" as="alternateBounds" />
          </mxGeometry>
        </mxCell>
        <mxCell id="GarMhUQVC3FnO8lZaiJo-10" value="Group NVARCHAR(30)" style="shape=partialRectangle;connectable=0;fillColor=none;top=0;left=0;bottom=0;right=0;align=left;spacingLeft=6;overflow=hidden;whiteSpace=wrap;html=1;" parent="GarMhUQVC3FnO8lZaiJo-8" vertex="1">
          <mxGeometry x="30" width="150" height="30" as="geometry">
            <mxRectangle width="150" height="30" as="alternateBounds" />
          </mxGeometry>
        </mxCell>
        <mxCell id="GarMhUQVC3FnO8lZaiJo-11" value="" style="shape=tableRow;horizontal=0;startSize=0;swimlaneHead=0;swimlaneBody=0;fillColor=none;collapsible=0;dropTarget=0;points=[[0,0.5],[1,0.5]];portConstraint=eastwest;top=0;left=0;right=0;bottom=0;" parent="GarMhUQVC3FnO8lZaiJo-1" vertex="1">
          <mxGeometry y="120" width="180" height="30" as="geometry" />
        </mxCell>
        <mxCell id="GarMhUQVC3FnO8lZaiJo-12" value="*" style="shape=partialRectangle;connectable=0;fillColor=none;top=0;left=0;bottom=0;right=0;editable=1;overflow=hidden;whiteSpace=wrap;html=1;" parent="GarMhUQVC3FnO8lZaiJo-11" vertex="1">
          <mxGeometry width="30" height="30" as="geometry">
            <mxRectangle width="30" height="30" as="alternateBounds" />
          </mxGeometry>
        </mxCell>
        <mxCell id="GarMhUQVC3FnO8lZaiJo-13" value="Brand NVARCHAR(30)" style="shape=partialRectangle;connectable=0;fillColor=none;top=0;left=0;bottom=0;right=0;align=left;spacingLeft=6;overflow=hidden;whiteSpace=wrap;html=1;" parent="GarMhUQVC3FnO8lZaiJo-11" vertex="1">
          <mxGeometry x="30" width="150" height="30" as="geometry">
            <mxRectangle width="150" height="30" as="alternateBounds" />
          </mxGeometry>
        </mxCell>
        <mxCell id="GarMhUQVC3FnO8lZaiJo-14" value="" style="shape=tableRow;horizontal=0;startSize=0;swimlaneHead=0;swimlaneBody=0;fillColor=none;collapsible=0;dropTarget=0;points=[[0,0.5],[1,0.5]];portConstraint=eastwest;top=0;left=0;right=0;bottom=0;" parent="GarMhUQVC3FnO8lZaiJo-1" vertex="1">
          <mxGeometry y="150" width="180" height="30" as="geometry" />
        </mxCell>
        <mxCell id="GarMhUQVC3FnO8lZaiJo-15" value="*" style="shape=partialRectangle;connectable=0;fillColor=none;top=0;left=0;bottom=0;right=0;editable=1;overflow=hidden;whiteSpace=wrap;html=1;" parent="GarMhUQVC3FnO8lZaiJo-14" vertex="1">
          <mxGeometry width="30" height="30" as="geometry">
            <mxRectangle width="30" height="30" as="alternateBounds" />
          </mxGeometry>
        </mxCell>
        <mxCell id="GarMhUQVC3FnO8lZaiJo-16" value="Model NVARCHAR(30)" style="shape=partialRectangle;connectable=0;fillColor=none;top=0;left=0;bottom=0;right=0;align=left;spacingLeft=6;overflow=hidden;whiteSpace=wrap;html=1;" parent="GarMhUQVC3FnO8lZaiJo-14" vertex="1">
          <mxGeometry x="30" width="150" height="30" as="geometry">
            <mxRectangle width="150" height="30" as="alternateBounds" />
          </mxGeometry>
        </mxCell>
        <mxCell id="GarMhUQVC3FnO8lZaiJo-17" value="" style="shape=tableRow;horizontal=0;startSize=0;swimlaneHead=0;swimlaneBody=0;fillColor=none;collapsible=0;dropTarget=0;points=[[0,0.5],[1,0.5]];portConstraint=eastwest;top=0;left=0;right=0;bottom=0;" parent="GarMhUQVC3FnO8lZaiJo-1" vertex="1">
          <mxGeometry y="180" width="180" height="30" as="geometry" />
        </mxCell>
        <mxCell id="GarMhUQVC3FnO8lZaiJo-18" value="" style="shape=partialRectangle;connectable=0;fillColor=none;top=0;left=0;bottom=0;right=0;editable=1;overflow=hidden;whiteSpace=wrap;html=1;" parent="GarMhUQVC3FnO8lZaiJo-17" vertex="1">
          <mxGeometry width="30" height="30" as="geometry">
            <mxRectangle width="30" height="30" as="alternateBounds" />
          </mxGeometry>
        </mxCell>
        <mxCell id="GarMhUQVC3FnO8lZaiJo-19" value="Color NVARCHAR(30)" style="shape=partialRectangle;connectable=0;fillColor=none;top=0;left=0;bottom=0;right=0;align=left;spacingLeft=6;overflow=hidden;whiteSpace=wrap;html=1;" parent="GarMhUQVC3FnO8lZaiJo-17" vertex="1">
          <mxGeometry x="30" width="150" height="30" as="geometry">
            <mxRectangle width="150" height="30" as="alternateBounds" />
          </mxGeometry>
        </mxCell>
        <mxCell id="GarMhUQVC3FnO8lZaiJo-20" value="" style="shape=tableRow;horizontal=0;startSize=0;swimlaneHead=0;swimlaneBody=0;fillColor=none;collapsible=0;dropTarget=0;points=[[0,0.5],[1,0.5]];portConstraint=eastwest;top=0;left=0;right=0;bottom=0;" parent="GarMhUQVC3FnO8lZaiJo-1" vertex="1">
          <mxGeometry y="210" width="180" height="30" as="geometry" />
        </mxCell>
        <mxCell id="GarMhUQVC3FnO8lZaiJo-21" value="*" style="shape=partialRectangle;connectable=0;fillColor=none;top=0;left=0;bottom=0;right=0;editable=1;overflow=hidden;whiteSpace=wrap;html=1;" parent="GarMhUQVC3FnO8lZaiJo-20" vertex="1">
          <mxGeometry width="30" height="30" as="geometry">
            <mxRectangle width="30" height="30" as="alternateBounds" />
          </mxGeometry>
        </mxCell>
        <mxCell id="GarMhUQVC3FnO8lZaiJo-22" value="Price FLOAT" style="shape=partialRectangle;connectable=0;fillColor=none;top=0;left=0;bottom=0;right=0;align=left;spacingLeft=6;overflow=hidden;whiteSpace=wrap;html=1;" parent="GarMhUQVC3FnO8lZaiJo-20" vertex="1">
          <mxGeometry x="30" width="150" height="30" as="geometry">
            <mxRectangle width="150" height="30" as="alternateBounds" />
          </mxGeometry>
        </mxCell>
        <mxCell id="GarMhUQVC3FnO8lZaiJo-23" value="" style="shape=tableRow;horizontal=0;startSize=0;swimlaneHead=0;swimlaneBody=0;fillColor=none;collapsible=0;dropTarget=0;points=[[0,0.5],[1,0.5]];portConstraint=eastwest;top=0;left=0;right=0;bottom=0;" parent="GarMhUQVC3FnO8lZaiJo-1" vertex="1">
          <mxGeometry y="240" width="180" height="30" as="geometry" />
        </mxCell>
        <mxCell id="GarMhUQVC3FnO8lZaiJo-24" value="*" style="shape=partialRectangle;connectable=0;fillColor=none;top=0;left=0;bottom=0;right=0;editable=1;overflow=hidden;whiteSpace=wrap;html=1;" parent="GarMhUQVC3FnO8lZaiJo-23" vertex="1">
          <mxGeometry width="30" height="30" as="geometry">
            <mxRectangle width="30" height="30" as="alternateBounds" />
          </mxGeometry>
        </mxCell>
        <mxCell id="GarMhUQVC3FnO8lZaiJo-25" value="VendorPrice FLOAT" style="shape=partialRectangle;connectable=0;fillColor=none;top=0;left=0;bottom=0;right=0;align=left;spacingLeft=6;overflow=hidden;whiteSpace=wrap;html=1;" parent="GarMhUQVC3FnO8lZaiJo-23" vertex="1">
          <mxGeometry x="30" width="150" height="30" as="geometry">
            <mxRectangle width="150" height="30" as="alternateBounds" />
          </mxGeometry>
        </mxCell>
        <mxCell id="ntx-Ss5JqZ3EFbZmUPpO-1" value="Client" style="shape=table;startSize=30;container=1;collapsible=1;childLayout=tableLayout;fixedRows=1;rowLines=0;fontStyle=1;align=center;resizeLast=1;html=1;" parent="1" vertex="1">
          <mxGeometry x="1130" y="-50" width="208" height="270" as="geometry" />
        </mxCell>
        <mxCell id="ntx-Ss5JqZ3EFbZmUPpO-2" value="" style="shape=tableRow;horizontal=0;startSize=0;swimlaneHead=0;swimlaneBody=0;fillColor=none;collapsible=0;dropTarget=0;points=[[0,0.5],[1,0.5]];portConstraint=eastwest;top=0;left=0;right=0;bottom=1;" parent="ntx-Ss5JqZ3EFbZmUPpO-1" vertex="1">
          <mxGeometry y="30" width="208" height="30" as="geometry" />
        </mxCell>
        <mxCell id="ntx-Ss5JqZ3EFbZmUPpO-3" value="PK" style="shape=partialRectangle;connectable=0;fillColor=none;top=0;left=0;bottom=0;right=0;fontStyle=1;overflow=hidden;whiteSpace=wrap;html=1;" parent="ntx-Ss5JqZ3EFbZmUPpO-2" vertex="1">
          <mxGeometry width="30" height="30" as="geometry">
            <mxRectangle width="30" height="30" as="alternateBounds" />
          </mxGeometry>
        </mxCell>
        <mxCell id="ntx-Ss5JqZ3EFbZmUPpO-4" value="ClientID INT" style="shape=partialRectangle;connectable=0;fillColor=none;top=0;left=0;bottom=0;right=0;align=left;spacingLeft=6;fontStyle=5;overflow=hidden;whiteSpace=wrap;html=1;" parent="ntx-Ss5JqZ3EFbZmUPpO-2" vertex="1">
          <mxGeometry x="30" width="178" height="30" as="geometry">
            <mxRectangle width="178" height="30" as="alternateBounds" />
          </mxGeometry>
        </mxCell>
        <mxCell id="ntx-Ss5JqZ3EFbZmUPpO-5" value="" style="shape=tableRow;horizontal=0;startSize=0;swimlaneHead=0;swimlaneBody=0;fillColor=none;collapsible=0;dropTarget=0;points=[[0,0.5],[1,0.5]];portConstraint=eastwest;top=0;left=0;right=0;bottom=0;" parent="ntx-Ss5JqZ3EFbZmUPpO-1" vertex="1">
          <mxGeometry y="60" width="208" height="30" as="geometry" />
        </mxCell>
        <mxCell id="ntx-Ss5JqZ3EFbZmUPpO-6" value="*" style="shape=partialRectangle;connectable=0;fillColor=none;top=0;left=0;bottom=0;right=0;fontStyle=0;overflow=hidden;whiteSpace=wrap;html=1;" parent="ntx-Ss5JqZ3EFbZmUPpO-5" vertex="1">
          <mxGeometry width="30" height="30" as="geometry">
            <mxRectangle width="30" height="30" as="alternateBounds" />
          </mxGeometry>
        </mxCell>
        <mxCell id="ntx-Ss5JqZ3EFbZmUPpO-7" value="FirstName NVARCHAR(30)" style="shape=partialRectangle;connectable=0;fillColor=none;top=0;left=0;bottom=0;right=0;align=left;spacingLeft=6;fontStyle=0;overflow=hidden;whiteSpace=wrap;html=1;" parent="ntx-Ss5JqZ3EFbZmUPpO-5" vertex="1">
          <mxGeometry x="30" width="178" height="30" as="geometry">
            <mxRectangle width="178" height="30" as="alternateBounds" />
          </mxGeometry>
        </mxCell>
        <mxCell id="ntx-Ss5JqZ3EFbZmUPpO-8" value="" style="shape=tableRow;horizontal=0;startSize=0;swimlaneHead=0;swimlaneBody=0;fillColor=none;collapsible=0;dropTarget=0;points=[[0,0.5],[1,0.5]];portConstraint=eastwest;top=0;left=0;right=0;bottom=0;" parent="ntx-Ss5JqZ3EFbZmUPpO-1" vertex="1">
          <mxGeometry y="90" width="208" height="30" as="geometry" />
        </mxCell>
        <mxCell id="ntx-Ss5JqZ3EFbZmUPpO-9" value="*" style="shape=partialRectangle;connectable=0;fillColor=none;top=0;left=0;bottom=0;right=0;editable=1;overflow=hidden;whiteSpace=wrap;html=1;" parent="ntx-Ss5JqZ3EFbZmUPpO-8" vertex="1">
          <mxGeometry width="30" height="30" as="geometry">
            <mxRectangle width="30" height="30" as="alternateBounds" />
          </mxGeometry>
        </mxCell>
        <mxCell id="ntx-Ss5JqZ3EFbZmUPpO-10" value="LastName NVARCHAR(30)" style="shape=partialRectangle;connectable=0;fillColor=none;top=0;left=0;bottom=0;right=0;align=left;spacingLeft=6;overflow=hidden;whiteSpace=wrap;html=1;" parent="ntx-Ss5JqZ3EFbZmUPpO-8" vertex="1">
          <mxGeometry x="30" width="178" height="30" as="geometry">
            <mxRectangle width="178" height="30" as="alternateBounds" />
          </mxGeometry>
        </mxCell>
        <mxCell id="ntx-Ss5JqZ3EFbZmUPpO-11" value="" style="shape=tableRow;horizontal=0;startSize=0;swimlaneHead=0;swimlaneBody=0;fillColor=none;collapsible=0;dropTarget=0;points=[[0,0.5],[1,0.5]];portConstraint=eastwest;top=0;left=0;right=0;bottom=0;" parent="ntx-Ss5JqZ3EFbZmUPpO-1" vertex="1">
          <mxGeometry y="120" width="208" height="30" as="geometry" />
        </mxCell>
        <mxCell id="ntx-Ss5JqZ3EFbZmUPpO-12" value="*" style="shape=partialRectangle;connectable=0;fillColor=none;top=0;left=0;bottom=0;right=0;editable=1;overflow=hidden;whiteSpace=wrap;html=1;" parent="ntx-Ss5JqZ3EFbZmUPpO-11" vertex="1">
          <mxGeometry width="30" height="30" as="geometry">
            <mxRectangle width="30" height="30" as="alternateBounds" />
          </mxGeometry>
        </mxCell>
        <mxCell id="ntx-Ss5JqZ3EFbZmUPpO-13" value="Gender CHAR(1)" style="shape=partialRectangle;connectable=0;fillColor=none;top=0;left=0;bottom=0;right=0;align=left;spacingLeft=6;overflow=hidden;whiteSpace=wrap;html=1;" parent="ntx-Ss5JqZ3EFbZmUPpO-11" vertex="1">
          <mxGeometry x="30" width="178" height="30" as="geometry">
            <mxRectangle width="178" height="30" as="alternateBounds" />
          </mxGeometry>
        </mxCell>
        <mxCell id="ntx-Ss5JqZ3EFbZmUPpO-14" value="" style="shape=tableRow;horizontal=0;startSize=0;swimlaneHead=0;swimlaneBody=0;fillColor=none;collapsible=0;dropTarget=0;points=[[0,0.5],[1,0.5]];portConstraint=eastwest;top=0;left=0;right=0;bottom=0;" parent="ntx-Ss5JqZ3EFbZmUPpO-1" vertex="1">
          <mxGeometry y="150" width="208" height="30" as="geometry" />
        </mxCell>
        <mxCell id="ntx-Ss5JqZ3EFbZmUPpO-15" value="*" style="shape=partialRectangle;connectable=0;fillColor=none;top=0;left=0;bottom=0;right=0;editable=1;overflow=hidden;whiteSpace=wrap;html=1;" parent="ntx-Ss5JqZ3EFbZmUPpO-14" vertex="1">
          <mxGeometry width="30" height="30" as="geometry">
            <mxRectangle width="30" height="30" as="alternateBounds" />
          </mxGeometry>
        </mxCell>
        <mxCell id="ntx-Ss5JqZ3EFbZmUPpO-16" value="Birthday DATE" style="shape=partialRectangle;connectable=0;fillColor=none;top=0;left=0;bottom=0;right=0;align=left;spacingLeft=6;overflow=hidden;whiteSpace=wrap;html=1;" parent="ntx-Ss5JqZ3EFbZmUPpO-14" vertex="1">
          <mxGeometry x="30" width="178" height="30" as="geometry">
            <mxRectangle width="178" height="30" as="alternateBounds" />
          </mxGeometry>
        </mxCell>
        <mxCell id="ntx-Ss5JqZ3EFbZmUPpO-17" value="" style="shape=tableRow;horizontal=0;startSize=0;swimlaneHead=0;swimlaneBody=0;fillColor=none;collapsible=0;dropTarget=0;points=[[0,0.5],[1,0.5]];portConstraint=eastwest;top=0;left=0;right=0;bottom=0;" parent="ntx-Ss5JqZ3EFbZmUPpO-1" vertex="1">
          <mxGeometry y="180" width="208" height="30" as="geometry" />
        </mxCell>
        <mxCell id="ntx-Ss5JqZ3EFbZmUPpO-18" value="U*" style="shape=partialRectangle;connectable=0;fillColor=none;top=0;left=0;bottom=0;right=0;editable=1;overflow=hidden;whiteSpace=wrap;html=1;" parent="ntx-Ss5JqZ3EFbZmUPpO-17" vertex="1">
          <mxGeometry width="30" height="30" as="geometry">
            <mxRectangle width="30" height="30" as="alternateBounds" />
          </mxGeometry>
        </mxCell>
        <mxCell id="ntx-Ss5JqZ3EFbZmUPpO-19" value="PassportID NVARCHAR(14)" style="shape=partialRectangle;connectable=0;fillColor=none;top=0;left=0;bottom=0;right=0;align=left;spacingLeft=6;overflow=hidden;whiteSpace=wrap;html=1;" parent="ntx-Ss5JqZ3EFbZmUPpO-17" vertex="1">
          <mxGeometry x="30" width="178" height="30" as="geometry">
            <mxRectangle width="178" height="30" as="alternateBounds" />
          </mxGeometry>
        </mxCell>
        <mxCell id="ntx-Ss5JqZ3EFbZmUPpO-20" value="" style="shape=tableRow;horizontal=0;startSize=0;swimlaneHead=0;swimlaneBody=0;fillColor=none;collapsible=0;dropTarget=0;points=[[0,0.5],[1,0.5]];portConstraint=eastwest;top=0;left=0;right=0;bottom=0;" parent="ntx-Ss5JqZ3EFbZmUPpO-1" vertex="1">
          <mxGeometry y="210" width="208" height="30" as="geometry" />
        </mxCell>
        <mxCell id="ntx-Ss5JqZ3EFbZmUPpO-21" value="*" style="shape=partialRectangle;connectable=0;fillColor=none;top=0;left=0;bottom=0;right=0;editable=1;overflow=hidden;whiteSpace=wrap;html=1;" parent="ntx-Ss5JqZ3EFbZmUPpO-20" vertex="1">
          <mxGeometry width="30" height="30" as="geometry">
            <mxRectangle width="30" height="30" as="alternateBounds" />
          </mxGeometry>
        </mxCell>
        <mxCell id="ntx-Ss5JqZ3EFbZmUPpO-22" value="TelNumber NVARCHAR(14)" style="shape=partialRectangle;connectable=0;fillColor=none;top=0;left=0;bottom=0;right=0;align=left;spacingLeft=6;overflow=hidden;whiteSpace=wrap;html=1;" parent="ntx-Ss5JqZ3EFbZmUPpO-20" vertex="1">
          <mxGeometry x="30" width="178" height="30" as="geometry">
            <mxRectangle width="178" height="30" as="alternateBounds" />
          </mxGeometry>
        </mxCell>
        <mxCell id="ntx-Ss5JqZ3EFbZmUPpO-23" value="" style="shape=tableRow;horizontal=0;startSize=0;swimlaneHead=0;swimlaneBody=0;fillColor=none;collapsible=0;dropTarget=0;points=[[0,0.5],[1,0.5]];portConstraint=eastwest;top=0;left=0;right=0;bottom=0;" parent="ntx-Ss5JqZ3EFbZmUPpO-1" vertex="1">
          <mxGeometry y="240" width="208" height="30" as="geometry" />
        </mxCell>
        <mxCell id="ntx-Ss5JqZ3EFbZmUPpO-24" value="*" style="shape=partialRectangle;connectable=0;fillColor=none;top=0;left=0;bottom=0;right=0;editable=1;overflow=hidden;whiteSpace=wrap;html=1;" parent="ntx-Ss5JqZ3EFbZmUPpO-23" vertex="1">
          <mxGeometry width="30" height="30" as="geometry">
            <mxRectangle width="30" height="30" as="alternateBounds" />
          </mxGeometry>
        </mxCell>
        <mxCell id="ntx-Ss5JqZ3EFbZmUPpO-25" value="Mail NVARCHAR(13)" style="shape=partialRectangle;connectable=0;fillColor=none;top=0;left=0;bottom=0;right=0;align=left;spacingLeft=6;overflow=hidden;whiteSpace=wrap;html=1;" parent="ntx-Ss5JqZ3EFbZmUPpO-23" vertex="1">
          <mxGeometry x="30" width="178" height="30" as="geometry">
            <mxRectangle width="178" height="30" as="alternateBounds" />
          </mxGeometry>
        </mxCell>
        <mxCell id="IdlyLt0tLZ9u1kqz8DGV-1" value="Vendor" style="shape=table;startSize=30;container=1;collapsible=1;childLayout=tableLayout;fixedRows=1;rowLines=0;fontStyle=1;align=center;resizeLast=1;html=1;" parent="1" vertex="1">
          <mxGeometry x="780" y="640" width="200" height="180" as="geometry" />
        </mxCell>
        <mxCell id="IdlyLt0tLZ9u1kqz8DGV-2" value="" style="shape=tableRow;horizontal=0;startSize=0;swimlaneHead=0;swimlaneBody=0;fillColor=none;collapsible=0;dropTarget=0;points=[[0,0.5],[1,0.5]];portConstraint=eastwest;top=0;left=0;right=0;bottom=1;" parent="IdlyLt0tLZ9u1kqz8DGV-1" vertex="1">
          <mxGeometry y="30" width="200" height="30" as="geometry" />
        </mxCell>
        <mxCell id="IdlyLt0tLZ9u1kqz8DGV-3" value="PK" style="shape=partialRectangle;connectable=0;fillColor=none;top=0;left=0;bottom=0;right=0;fontStyle=1;overflow=hidden;whiteSpace=wrap;html=1;" parent="IdlyLt0tLZ9u1kqz8DGV-2" vertex="1">
          <mxGeometry width="30" height="30" as="geometry">
            <mxRectangle width="30" height="30" as="alternateBounds" />
          </mxGeometry>
        </mxCell>
        <mxCell id="IdlyLt0tLZ9u1kqz8DGV-4" value="VendorID INT" style="shape=partialRectangle;connectable=0;fillColor=none;top=0;left=0;bottom=0;right=0;align=left;spacingLeft=6;fontStyle=5;overflow=hidden;whiteSpace=wrap;html=1;" parent="IdlyLt0tLZ9u1kqz8DGV-2" vertex="1">
          <mxGeometry x="30" width="170" height="30" as="geometry">
            <mxRectangle width="170" height="30" as="alternateBounds" />
          </mxGeometry>
        </mxCell>
        <mxCell id="IdlyLt0tLZ9u1kqz8DGV-5" value="" style="shape=tableRow;horizontal=0;startSize=0;swimlaneHead=0;swimlaneBody=0;fillColor=none;collapsible=0;dropTarget=0;points=[[0,0.5],[1,0.5]];portConstraint=eastwest;top=0;left=0;right=0;bottom=0;" parent="IdlyLt0tLZ9u1kqz8DGV-1" vertex="1">
          <mxGeometry y="60" width="200" height="30" as="geometry" />
        </mxCell>
        <mxCell id="IdlyLt0tLZ9u1kqz8DGV-6" value="*" style="shape=partialRectangle;connectable=0;fillColor=none;top=0;left=0;bottom=0;right=0;fontStyle=0;overflow=hidden;whiteSpace=wrap;html=1;" parent="IdlyLt0tLZ9u1kqz8DGV-5" vertex="1">
          <mxGeometry width="30" height="30" as="geometry">
            <mxRectangle width="30" height="30" as="alternateBounds" />
          </mxGeometry>
        </mxCell>
        <mxCell id="IdlyLt0tLZ9u1kqz8DGV-7" value="Name NVARCHAR(30)" style="shape=partialRectangle;connectable=0;fillColor=none;top=0;left=0;bottom=0;right=0;align=left;spacingLeft=6;fontStyle=0;overflow=hidden;whiteSpace=wrap;html=1;" parent="IdlyLt0tLZ9u1kqz8DGV-5" vertex="1">
          <mxGeometry x="30" width="170" height="30" as="geometry">
            <mxRectangle width="170" height="30" as="alternateBounds" />
          </mxGeometry>
        </mxCell>
        <mxCell id="IdlyLt0tLZ9u1kqz8DGV-8" value="" style="shape=tableRow;horizontal=0;startSize=0;swimlaneHead=0;swimlaneBody=0;fillColor=none;collapsible=0;dropTarget=0;points=[[0,0.5],[1,0.5]];portConstraint=eastwest;top=0;left=0;right=0;bottom=0;" parent="IdlyLt0tLZ9u1kqz8DGV-1" vertex="1">
          <mxGeometry y="90" width="200" height="30" as="geometry" />
        </mxCell>
        <mxCell id="IdlyLt0tLZ9u1kqz8DGV-9" value="*" style="shape=partialRectangle;connectable=0;fillColor=none;top=0;left=0;bottom=0;right=0;editable=1;overflow=hidden;whiteSpace=wrap;html=1;" parent="IdlyLt0tLZ9u1kqz8DGV-8" vertex="1">
          <mxGeometry width="30" height="30" as="geometry">
            <mxRectangle width="30" height="30" as="alternateBounds" />
          </mxGeometry>
        </mxCell>
        <mxCell id="IdlyLt0tLZ9u1kqz8DGV-10" value="&lt;div align=&quot;left&quot;&gt;ActiveFlag BOOL&lt;/div&gt;" style="shape=partialRectangle;connectable=0;fillColor=none;top=0;left=0;bottom=0;right=0;align=left;spacingLeft=6;overflow=hidden;whiteSpace=wrap;html=1;" parent="IdlyLt0tLZ9u1kqz8DGV-8" vertex="1">
          <mxGeometry x="30" width="170" height="30" as="geometry">
            <mxRectangle width="170" height="30" as="alternateBounds" />
          </mxGeometry>
        </mxCell>
        <mxCell id="IdlyLt0tLZ9u1kqz8DGV-11" value="" style="shape=tableRow;horizontal=0;startSize=0;swimlaneHead=0;swimlaneBody=0;fillColor=none;collapsible=0;dropTarget=0;points=[[0,0.5],[1,0.5]];portConstraint=eastwest;top=0;left=0;right=0;bottom=0;" parent="IdlyLt0tLZ9u1kqz8DGV-1" vertex="1">
          <mxGeometry y="120" width="200" height="30" as="geometry" />
        </mxCell>
        <mxCell id="IdlyLt0tLZ9u1kqz8DGV-12" value="U" style="shape=partialRectangle;connectable=0;fillColor=none;top=0;left=0;bottom=0;right=0;editable=1;overflow=hidden;whiteSpace=wrap;html=1;" parent="IdlyLt0tLZ9u1kqz8DGV-11" vertex="1">
          <mxGeometry width="30" height="30" as="geometry">
            <mxRectangle width="30" height="30" as="alternateBounds" />
          </mxGeometry>
        </mxCell>
        <mxCell id="IdlyLt0tLZ9u1kqz8DGV-13" value="WebURL NVARCHAR(150)" style="shape=partialRectangle;connectable=0;fillColor=none;top=0;left=0;bottom=0;right=0;align=left;spacingLeft=6;overflow=hidden;whiteSpace=wrap;html=1;" parent="IdlyLt0tLZ9u1kqz8DGV-11" vertex="1">
          <mxGeometry x="30" width="170" height="30" as="geometry">
            <mxRectangle width="170" height="30" as="alternateBounds" />
          </mxGeometry>
        </mxCell>
        <mxCell id="IdlyLt0tLZ9u1kqz8DGV-14" value="" style="shape=tableRow;horizontal=0;startSize=0;swimlaneHead=0;swimlaneBody=0;fillColor=none;collapsible=0;dropTarget=0;points=[[0,0.5],[1,0.5]];portConstraint=eastwest;top=0;left=0;right=0;bottom=0;" parent="IdlyLt0tLZ9u1kqz8DGV-1" vertex="1">
          <mxGeometry y="150" width="200" height="30" as="geometry" />
        </mxCell>
        <mxCell id="IdlyLt0tLZ9u1kqz8DGV-15" value="*" style="shape=partialRectangle;connectable=0;fillColor=none;top=0;left=0;bottom=0;right=0;editable=1;overflow=hidden;whiteSpace=wrap;html=1;" parent="IdlyLt0tLZ9u1kqz8DGV-14" vertex="1">
          <mxGeometry width="30" height="30" as="geometry">
            <mxRectangle width="30" height="30" as="alternateBounds" />
          </mxGeometry>
        </mxCell>
        <mxCell id="IdlyLt0tLZ9u1kqz8DGV-16" value="ModifiedeDate DATE" style="shape=partialRectangle;connectable=0;fillColor=none;top=0;left=0;bottom=0;right=0;align=left;spacingLeft=6;overflow=hidden;whiteSpace=wrap;html=1;" parent="IdlyLt0tLZ9u1kqz8DGV-14" vertex="1">
          <mxGeometry x="30" width="170" height="30" as="geometry">
            <mxRectangle width="170" height="30" as="alternateBounds" />
          </mxGeometry>
        </mxCell>
        <mxCell id="vn18C2h7BKn17D8joRQs-1" value="Pay" style="shape=table;startSize=30;container=1;collapsible=1;childLayout=tableLayout;fixedRows=1;rowLines=0;fontStyle=1;align=center;resizeLast=1;html=1;" parent="1" vertex="1">
          <mxGeometry x="1130" y="740" width="208" height="90" as="geometry" />
        </mxCell>
        <mxCell id="vn18C2h7BKn17D8joRQs-2" value="" style="shape=tableRow;horizontal=0;startSize=0;swimlaneHead=0;swimlaneBody=0;fillColor=none;collapsible=0;dropTarget=0;points=[[0,0.5],[1,0.5]];portConstraint=eastwest;top=0;left=0;right=0;bottom=1;" parent="vn18C2h7BKn17D8joRQs-1" vertex="1">
          <mxGeometry y="30" width="208" height="30" as="geometry" />
        </mxCell>
        <mxCell id="vn18C2h7BKn17D8joRQs-3" value="PK" style="shape=partialRectangle;connectable=0;fillColor=none;top=0;left=0;bottom=0;right=0;fontStyle=1;overflow=hidden;whiteSpace=wrap;html=1;" parent="vn18C2h7BKn17D8joRQs-2" vertex="1">
          <mxGeometry width="30" height="30" as="geometry">
            <mxRectangle width="30" height="30" as="alternateBounds" />
          </mxGeometry>
        </mxCell>
        <mxCell id="vn18C2h7BKn17D8joRQs-4" value="PayTypeID INT" style="shape=partialRectangle;connectable=0;fillColor=none;top=0;left=0;bottom=0;right=0;align=left;spacingLeft=6;fontStyle=5;overflow=hidden;whiteSpace=wrap;html=1;" parent="vn18C2h7BKn17D8joRQs-2" vertex="1">
          <mxGeometry x="30" width="178" height="30" as="geometry">
            <mxRectangle width="178" height="30" as="alternateBounds" />
          </mxGeometry>
        </mxCell>
        <mxCell id="vn18C2h7BKn17D8joRQs-5" value="" style="shape=tableRow;horizontal=0;startSize=0;swimlaneHead=0;swimlaneBody=0;fillColor=none;collapsible=0;dropTarget=0;points=[[0,0.5],[1,0.5]];portConstraint=eastwest;top=0;left=0;right=0;bottom=0;" parent="vn18C2h7BKn17D8joRQs-1" vertex="1">
          <mxGeometry y="60" width="208" height="30" as="geometry" />
        </mxCell>
        <mxCell id="vn18C2h7BKn17D8joRQs-6" value="*" style="shape=partialRectangle;connectable=0;fillColor=none;top=0;left=0;bottom=0;right=0;fontStyle=0;overflow=hidden;whiteSpace=wrap;html=1;" parent="vn18C2h7BKn17D8joRQs-5" vertex="1">
          <mxGeometry width="30" height="30" as="geometry">
            <mxRectangle width="30" height="30" as="alternateBounds" />
          </mxGeometry>
        </mxCell>
        <mxCell id="vn18C2h7BKn17D8joRQs-7" value="PayType NVARCHAR(30)" style="shape=partialRectangle;connectable=0;fillColor=none;top=0;left=0;bottom=0;right=0;align=left;spacingLeft=6;fontStyle=0;overflow=hidden;whiteSpace=wrap;html=1;" parent="vn18C2h7BKn17D8joRQs-5" vertex="1">
          <mxGeometry x="30" width="178" height="30" as="geometry">
            <mxRectangle width="178" height="30" as="alternateBounds" />
          </mxGeometry>
        </mxCell>
        <mxCell id="gti_ZHnEj6v51twAv-ym-1" value="Status" style="shape=table;startSize=30;container=1;collapsible=1;childLayout=tableLayout;fixedRows=1;rowLines=0;fontStyle=1;align=center;resizeLast=1;html=1;" parent="1" vertex="1">
          <mxGeometry x="1500" y="640" width="184" height="90" as="geometry" />
        </mxCell>
        <mxCell id="gti_ZHnEj6v51twAv-ym-2" value="" style="shape=tableRow;horizontal=0;startSize=0;swimlaneHead=0;swimlaneBody=0;fillColor=none;collapsible=0;dropTarget=0;points=[[0,0.5],[1,0.5]];portConstraint=eastwest;top=0;left=0;right=0;bottom=1;" parent="gti_ZHnEj6v51twAv-ym-1" vertex="1">
          <mxGeometry y="30" width="184" height="30" as="geometry" />
        </mxCell>
        <mxCell id="gti_ZHnEj6v51twAv-ym-3" value="PK" style="shape=partialRectangle;connectable=0;fillColor=none;top=0;left=0;bottom=0;right=0;fontStyle=1;overflow=hidden;whiteSpace=wrap;html=1;" parent="gti_ZHnEj6v51twAv-ym-2" vertex="1">
          <mxGeometry width="30" height="30" as="geometry">
            <mxRectangle width="30" height="30" as="alternateBounds" />
          </mxGeometry>
        </mxCell>
        <mxCell id="gti_ZHnEj6v51twAv-ym-4" value="StatusID INT" style="shape=partialRectangle;connectable=0;fillColor=none;top=0;left=0;bottom=0;right=0;align=left;spacingLeft=6;fontStyle=5;overflow=hidden;whiteSpace=wrap;html=1;" parent="gti_ZHnEj6v51twAv-ym-2" vertex="1">
          <mxGeometry x="30" width="154" height="30" as="geometry">
            <mxRectangle width="154" height="30" as="alternateBounds" />
          </mxGeometry>
        </mxCell>
        <mxCell id="gti_ZHnEj6v51twAv-ym-5" value="" style="shape=tableRow;horizontal=0;startSize=0;swimlaneHead=0;swimlaneBody=0;fillColor=none;collapsible=0;dropTarget=0;points=[[0,0.5],[1,0.5]];portConstraint=eastwest;top=0;left=0;right=0;bottom=0;" parent="gti_ZHnEj6v51twAv-ym-1" vertex="1">
          <mxGeometry y="60" width="184" height="30" as="geometry" />
        </mxCell>
        <mxCell id="gti_ZHnEj6v51twAv-ym-6" value="*" style="shape=partialRectangle;connectable=0;fillColor=none;top=0;left=0;bottom=0;right=0;fontStyle=0;overflow=hidden;whiteSpace=wrap;html=1;" parent="gti_ZHnEj6v51twAv-ym-5" vertex="1">
          <mxGeometry width="30" height="30" as="geometry">
            <mxRectangle width="30" height="30" as="alternateBounds" />
          </mxGeometry>
        </mxCell>
        <mxCell id="gti_ZHnEj6v51twAv-ym-7" value="Status NVARCHAR(30)" style="shape=partialRectangle;connectable=0;fillColor=none;top=0;left=0;bottom=0;right=0;align=left;spacingLeft=6;fontStyle=0;overflow=hidden;whiteSpace=wrap;html=1;" parent="gti_ZHnEj6v51twAv-ym-5" vertex="1">
          <mxGeometry x="30" width="154" height="30" as="geometry">
            <mxRectangle width="154" height="30" as="alternateBounds" />
          </mxGeometry>
        </mxCell>
        <mxCell id="a-yLA4ubCtNrAcRPYY3F-1" value="Delivery" style="shape=table;startSize=30;container=1;collapsible=1;childLayout=tableLayout;fixedRows=1;rowLines=0;fontStyle=1;align=center;resizeLast=1;html=1;" parent="1" vertex="1">
          <mxGeometry x="1500" y="200" width="208" height="90" as="geometry" />
        </mxCell>
        <mxCell id="a-yLA4ubCtNrAcRPYY3F-2" value="" style="shape=tableRow;horizontal=0;startSize=0;swimlaneHead=0;swimlaneBody=0;fillColor=none;collapsible=0;dropTarget=0;points=[[0,0.5],[1,0.5]];portConstraint=eastwest;top=0;left=0;right=0;bottom=1;" parent="a-yLA4ubCtNrAcRPYY3F-1" vertex="1">
          <mxGeometry y="30" width="208" height="30" as="geometry" />
        </mxCell>
        <mxCell id="a-yLA4ubCtNrAcRPYY3F-3" value="PK" style="shape=partialRectangle;connectable=0;fillColor=none;top=0;left=0;bottom=0;right=0;fontStyle=1;overflow=hidden;whiteSpace=wrap;html=1;" parent="a-yLA4ubCtNrAcRPYY3F-2" vertex="1">
          <mxGeometry width="30" height="30" as="geometry">
            <mxRectangle width="30" height="30" as="alternateBounds" />
          </mxGeometry>
        </mxCell>
        <mxCell id="a-yLA4ubCtNrAcRPYY3F-4" value="DeliveryID INT" style="shape=partialRectangle;connectable=0;fillColor=none;top=0;left=0;bottom=0;right=0;align=left;spacingLeft=6;fontStyle=5;overflow=hidden;whiteSpace=wrap;html=1;" parent="a-yLA4ubCtNrAcRPYY3F-2" vertex="1">
          <mxGeometry x="30" width="178" height="30" as="geometry">
            <mxRectangle width="178" height="30" as="alternateBounds" />
          </mxGeometry>
        </mxCell>
        <mxCell id="a-yLA4ubCtNrAcRPYY3F-5" value="" style="shape=tableRow;horizontal=0;startSize=0;swimlaneHead=0;swimlaneBody=0;fillColor=none;collapsible=0;dropTarget=0;points=[[0,0.5],[1,0.5]];portConstraint=eastwest;top=0;left=0;right=0;bottom=0;" parent="a-yLA4ubCtNrAcRPYY3F-1" vertex="1">
          <mxGeometry y="60" width="208" height="30" as="geometry" />
        </mxCell>
        <mxCell id="a-yLA4ubCtNrAcRPYY3F-6" value="*" style="shape=partialRectangle;connectable=0;fillColor=none;top=0;left=0;bottom=0;right=0;fontStyle=0;overflow=hidden;whiteSpace=wrap;html=1;" parent="a-yLA4ubCtNrAcRPYY3F-5" vertex="1">
          <mxGeometry width="30" height="30" as="geometry">
            <mxRectangle width="30" height="30" as="alternateBounds" />
          </mxGeometry>
        </mxCell>
        <mxCell id="a-yLA4ubCtNrAcRPYY3F-7" value="DeliveryType NVARCHAR(30)" style="shape=partialRectangle;connectable=0;fillColor=none;top=0;left=0;bottom=0;right=0;align=left;spacingLeft=6;fontStyle=0;overflow=hidden;whiteSpace=wrap;html=1;" parent="a-yLA4ubCtNrAcRPYY3F-5" vertex="1">
          <mxGeometry x="30" width="178" height="30" as="geometry">
            <mxRectangle width="178" height="30" as="alternateBounds" />
          </mxGeometry>
        </mxCell>
        <mxCell id="a-yLA4ubCtNrAcRPYY3F-9" style="edgeStyle=orthogonalEdgeStyle;rounded=0;orthogonalLoop=1;jettySize=auto;html=1;entryX=0;entryY=0.5;entryDx=0;entryDy=0;" parent="1" source="GarMhUQVC3FnO8lZaiJo-2" target="z7V3eBBZ9j4XnTCli53g-8" edge="1">
          <mxGeometry relative="1" as="geometry" />
        </mxCell>
        <mxCell id="a-yLA4ubCtNrAcRPYY3F-10" style="edgeStyle=orthogonalEdgeStyle;rounded=0;orthogonalLoop=1;jettySize=auto;html=1;entryX=0;entryY=0.5;entryDx=0;entryDy=0;" parent="1" source="vn18C2h7BKn17D8joRQs-2" target="z7V3eBBZ9j4XnTCli53g-20" edge="1">
          <mxGeometry relative="1" as="geometry">
            <Array as="points">
              <mxPoint x="1100" y="785" />
              <mxPoint x="1100" y="505" />
            </Array>
          </mxGeometry>
        </mxCell>
        <mxCell id="a-yLA4ubCtNrAcRPYY3F-12" style="edgeStyle=orthogonalEdgeStyle;rounded=0;orthogonalLoop=1;jettySize=auto;html=1;entryX=1;entryY=0.5;entryDx=0;entryDy=0;" parent="1" source="gti_ZHnEj6v51twAv-ym-2" target="z7V3eBBZ9j4XnTCli53g-17" edge="1">
          <mxGeometry relative="1" as="geometry" />
        </mxCell>
        <mxCell id="a-yLA4ubCtNrAcRPYY3F-13" style="edgeStyle=orthogonalEdgeStyle;rounded=0;orthogonalLoop=1;jettySize=auto;html=1;entryX=1;entryY=0.5;entryDx=0;entryDy=0;" parent="1" source="a-yLA4ubCtNrAcRPYY3F-2" target="z7V3eBBZ9j4XnTCli53g-11" edge="1">
          <mxGeometry relative="1" as="geometry" />
        </mxCell>
        <mxCell id="a-yLA4ubCtNrAcRPYY3F-14" style="edgeStyle=orthogonalEdgeStyle;rounded=0;orthogonalLoop=1;jettySize=auto;html=1;entryX=0;entryY=0.5;entryDx=0;entryDy=0;" parent="1" source="ntx-Ss5JqZ3EFbZmUPpO-2" target="z7V3eBBZ9j4XnTCli53g-5" edge="1">
          <mxGeometry relative="1" as="geometry">
            <Array as="points">
              <mxPoint x="1090" y="-5" />
              <mxPoint x="1090" y="355" />
            </Array>
          </mxGeometry>
        </mxCell>
        <mxCell id="a-yLA4ubCtNrAcRPYY3F-15" style="edgeStyle=orthogonalEdgeStyle;rounded=0;orthogonalLoop=1;jettySize=auto;html=1;entryX=0;entryY=0.5;entryDx=0;entryDy=0;" parent="1" source="IdlyLt0tLZ9u1kqz8DGV-2" target="z7V3eBBZ9j4XnTCli53g-14" edge="1">
          <mxGeometry relative="1" as="geometry" />
        </mxCell>
      </root>
    </mxGraphModel>
  </diagram>
</mxfile>
